<?xml version="1.0" encoding="UTF-8" standalone="no"?>
<!-- Created with Inkscape (http://www.inkscape.org/) -->

<svg
   width="784.4765"
   height="585.68219"
   viewBox="0 0 207.55941 154.96175"
   version="1.1"
   id="svg5"
   xml:space="preserve"
   xmlns="http://www.w3.org/2000/svg"
   xmlns:svg="http://www.w3.org/2000/svg"><defs
     id="defs2" /><g
     id="layer1"
     transform="translate(-35.830262,-56.965344)"><path
       style="fill:#059669;fill-opacity:1;stroke:none;stroke-width:0.264583"
       d="m 95.20438,56.965344 c -1.29624,5.472566 2.1806,10.786919 3.90368,15.748741 5.13045,14.776374 18.50435,28.130065 31.22813,36.612585 5.21446,3.47603 11.5947,5.43089 16.15255,9.28771 1.10321,0.93321 3.09886,1.28171 3.83623,2.55736 2.52384,4.36522 0.60573,11.29991 0.60573,16.15256 -5.46723,-4.29577 -1.6827,-14.03173 -10.09535,-16.01808 -4.5001,-1.06244 -9.16173,-0.90173 -13.72968,-1.34592 -5.72566,-0.55686 -12.1669,-1.40648 -17.7678,0.53828 -2.9749,1.03295 -4.25337,10.24678 -2.01907,12.38378 v 0.40381 l -1.34592,3.63433 -2.69221,10.49916 c -4.51908,-3.68683 -6.51313,-6.66173 -9.69154,-11.3068 h -0.40382 l 3.23051,8.07628 h 1.61526 l 7.26864,6.05721 h -0.80761 c 0.73977,1.14319 1.53085,0.81328 2.49031,1.61525 3.31047,2.76815 6.78206,5.72608 7.87438,10.09536 1.50702,6.02813 -4.27801,14.09834 -7.538,5.24957 4.29052,1.91932 3.20628,-1.25464 2.35545,-4.03813 -1.4929,-4.88575 -4.30708,-7.92607 -6.79741,-12.11441 l 1.61527,0.80761 -2.82671,-2.42288 v 0.40382 l 1.21144,0.80762 c -1.22678,0 -5.52457,-3.81523 -4.44194,-4.44194 v -0.40382 c -4.17948,0.35818 -8.25235,-9.49285 -8.88392,-12.92204 l 1.21145,0.40381 v -0.40381 l -1.61525,-0.40384 -0.40381,-5.65338 c -1.53934,0 -1.57366,-4.40157 -1.21144,-5.6534 -1.37419,0 -0.90576,-1.51956 -0.40383,-2.42288 l -2.01906,-4.03814 0.80762,0.40381 v -0.40381 h -1.21144 c -2.52504,-7.99551 -12.33651,-11.46025 -18.979237,-14.873675 -2.559816,-1.31563 -6.948951,-3.03264 -8.076282,-5.72083 h -0.403809 l 0.403809,0.80763 h -0.403809 c -1.834249,-1.49654 -6.864841,-3.87096 -6.864841,-6.46102 l -1.211441,0.40383 -4.441958,-6.461045 0.807633,0.403824 -1.61525,-0.807633 -4.441958,-8.076275 h 0.403809 l 3.230516,5.653395 0.807633,-0.807628 c 0.825627,2.24101 2.35257,3.16021 4.038133,4.845774 4.072672,4.072473 9.585445,8.882678 15.344932,10.095338 v 0.40381 l -1.615266,-0.40381 1.615266,1.61525 c 0,-1.95204 2.463664,-0.39009 3.63432,0 3.60445,1.20134 7.72455,2.50162 10.90298,4.57642 7.23996,4.726245 10.65018,13.356555 11.30678,21.671475 h 0.4038 c 0,-2.59208 -0.65578,-4.75774 -1.14399,-7.26865 C 84.94832,96.519715 66.659957,96.998645 54.419185,88.328369 49.800567,85.056664 44.904374,80.160938 41.631734,75.540781 c -1.560779,-2.203491 -2.671429,-5.522316 -4.57654,-7.268649 -0.252911,1.067886 0.646067,2.599431 0.201904,3.567009 -0.756183,1.64744 -1.820756,1.937418 -1.278748,4.105455 0.381282,1.525124 1.833913,2.77307 2.019059,4.307361 0.422185,3.497968 1.106972,8.915948 5.114993,10.633738 -1.728603,5.9716 1.362919,6.6165 3.903551,11.306795 0.648676,1.19771 0.220356,2.75361 1.076813,4.03814 0.821674,1.23244 2.155183,2.04411 3.028596,3.23052 1.264875,1.71821 1.144013,3.90324 2.624788,5.65338 2.252968,2.66275 4.756451,6.14362 7.537875,8.34562 1.667341,1.31966 4.103121,2.10065 5.586075,3.49945 1.02068,0.96309 1.35799,2.47941 2.49021,3.49986 3.91699,3.53096 8.22406,6.19856 12.92203,8.54754 2.35665,1.17834 3.86127,3.82734 6.46103,4.37451 v -0.40381 l -2.42289,-2.01907 c 1.12866,0.56453 4.19077,1.85876 3.2305,3.23051 3.21921,1.60961 10.63323,4.35352 12.31634,7.67246 0.95218,1.87775 -0.24351,5.7067 -0.60573,7.67248 h 0.40381 l 1.21144,-6.86484 c 2.88486,2.88484 5.21325,6.89431 6.05721,10.90297 -5.09814,1.07333 -0.91867,9.73756 2.82671,8.74944 3.45583,-0.91223 4.03813,-4.96126 4.03813,-7.94181 0,-5.88882 -6.45213,-14.51347 -12.11442,-16.15256 l 3.63433,-14.94111 h 0.40381 l 0.80763,9.69153 -0.80763,0.80764 h 1.21144 c -0.30164,1.63664 -0.44822,2.51938 1.21144,3.2305 l -0.40381,1.61526 1.61525,1.61525 h -0.80762 l 0.40381,1.21144 1.21145,-0.4038 -0.40381,1.21144 1.21144,1.21144 v -0.80763 l 0.80762,2.42288 1.21144,0.80763 v -0.80763 c 2.23714,2.23713 4.79166,5.07513 5.92274,8.07628 2.77865,7.37485 1.25627,13.23621 7.40311,19.38307 h -0.80761 l 1.61525,1.21144 -0.80764,-1.21144 2.42289,2.82669 -2.82669,-1.21144 -2.01908,0.40381 -1.21144,-1.21145 0.40382,0.80764 h -0.40382 l -1.61525,-0.40381 0.40381,-1.21144 -1.61525,-0.40383 v 0.40383 l 1.21144,0.4038 v 0.40381 l -3.63433,-1.61525 v 0.40381 h 0.80764 v 0.40383 l -3.23052,-0.80764 v -0.40381 l 1.21144,-0.40382 -1.21144,-0.40381 v 0.80763 l -4.84576,-1.61526 0.4038,-1.21144 c -7.39624,0.38928 -10.45876,-8.84796 -11.71059,-14.13348 h -0.40382 c 0,5.77494 -0.19383,10.4927 5.24959,14.40283 10.1329,7.27834 23.87751,9.40078 35.1318,14.40242 2.97489,1.32249 5.30368,3.86288 8.07627,5.51893 3.49219,2.08569 7.26099,3.19336 10.90298,4.91321 6.53896,3.08795 12.89498,6.59184 20.19069,7.60501 8.03024,1.11534 16.7389,1.28534 24.22883,-2.35544 3.08515,-1.49976 6.92096,-4.09669 6.86485,-8.14371 -0.0824,-5.93244 -7.01748,-8.02702 -10.43173,-11.44126 -1.46545,-1.46545 -1.36086,-3.98081 -3.29796,-5.38446 -5.13207,-3.71873 -11.11739,-3.10573 -16.15255,-7.13378 -1.55952,-1.24778 -1.28978,-3.49783 -3.23051,-4.98064 -3.77283,-2.88202 -10.65866,-4.79731 -12.11442,-9.82599 10.56419,3.89195 21.73529,3.87983 32.30512,7.40311 8.95215,2.98418 17.02964,7.54364 26.65171,8.34563 4.5631,0.38038 9.62774,-0.86902 13.72967,-2.69223 1.57731,-0.70062 4.10881,-1.58254 4.7113,-3.36498 0.43652,-1.29181 -0.44016,-2.77259 -0.67315,-4.03815 h -0.40383 c 0.21241,2.69062 1.1109,4.41772 -2.01906,5.6534 l 2.01906,-6.05721 c -1.77718,-6.13878 -7.65146,-5.94373 -12.04697,-8.68199 -2.42168,-1.50866 -3.95051,-3.61212 -6.93227,-4.24005 -2.14062,2.62721 -5.16357,3.11826 -7.67247,0.80763 l 1.61526,0.40381 -0.80763,-1.21144 3.63432,-1.61525 -0.4038,1.21144 h 0.4038 l 2.8267,0.40381 v -0.40381 l -10.49915,-7.26865 0.40381,2.01907 -6.46102,2.82669 v -0.4038 h 0.80762 v -0.40383 l -6.05721,-2.82669 v -0.40381 l 5.24959,-3.90367 4.44194,2.28841 v -0.40381 l -10.09534,-8.07629 0.40381,1.61527 -4.44194,3.2305 h -0.40383 l -4.84576,-6.86483 h -1.21145 c -2.60943,-7.42696 5.12886,-1.42708 7.26865,-0.80763 l -0.80761,0.80763 v 0.40381 c 1.34872,-0.11553 1.74688,0.25601 1.61525,1.61525 h 0.40381 1.61526 c -3.01973,-5.21567 -9.07694,-8.34079 -10.97042,-14.53731 -0.8367,-2.73907 -0.0557,-9.9112 -3.16307,-11.17232 -5.08805,-2.0647 -13.65213,-1.68874 -18.97926,-0.87465 -1.99442,0.30446 -7.26178,2.29971 -8.8839,1.07657 -4.7868,-3.60808 -4.80457,-12.265855 -9.28772,-16.488935 -8.43244,-7.943803 -21.87983,-9.875653 -31.49748,-16.287139 -5.72122,-3.814184 -11.53372,-8.000804 -16.0851,-13.191267 -2.22665,-2.539101 -3.5988,-6.899402 -6.12466,-8.883905 m 1.21144,2.422884 0.40381,1.615255 h -0.40381 v -1.615255 m -0.4038,2.019068 0.80761,2.422883 h -0.40381 l -0.4038,-2.422883 m 2.01906,0.807628 v 1.615255 h -0.40381 l 0.40381,-1.615255 m 0.80763,1.211442 2.01907,3.230511 c -1.6823,-0.177112 -3.49905,-1.750494 -2.01907,-3.230511 m -1.61525,1.211441 c 1.10805,0.902726 3.11138,2.755869 2.01906,4.038138 2.82347,0.455382 2.89332,2.903382 3.63432,5.249581 l -1.21144,-0.807628 7.26865,9.691536 -4.44194,-3.634328 0.40381,-1.211441 -2.8267,-1.615255 2.01906,2.826696 c -1.95607,-0.223551 -3.01245,-2.754253 -3.63432,-4.441951 h 0.40382 l 0.80762,1.615255 -1.61525,-3.634325 1.61525,0.403813 -1.21144,-2.826696 0.40382,1.211441 -1.21144,0.807629 -0.80763,-1.615257 1.21144,0.807628 -0.80763,-1.615256 1.21144,0.403815 -1.61525,-0.807628 -0.40381,-2.826697 c -1.07576,-0.436079 -1.93347,-0.960068 -1.21144,-2.01907 m 1.61525,0.403814 0.80763,0.807628 v -0.807628 h -0.80763 m 4.03813,2.826698 -0.40381,1.615255 c 2.17091,0.399936 5.00527,2.12083 5.24958,4.441952 1.92417,-0.354427 3.86692,1.26955 4.84576,2.826697 l -1.21144,-0.403813 4.84577,2.422883 v 0.403813 l -1.21144,0.807628 1.61526,-0.807628 c 7.29126,3.645683 14.21142,7.7387 21.80595,10.902989 4.81507,2.00653 10.41516,3.96017 12.51823,9.28769 l -0.80764,-0.40381 v 0.40381 l 1.21144,0.40383 6.46104,12.922035 -2.82671,0.80763 -3.2305,-6.86484 -2.28842,-4.03814 -8.682,-9.153245 -4.37451,-2.96117 c -2.15636,0.73777 -10.21326,-2.929644 -10.90298,-5.249553 -1.77394,0.466796 -4.07246,-0.73503 -5.24957,-2.019089 h 1.21144 l -2.82671,-0.740311 -5.65338,-4.105453 0.40381,0.807627 h -0.40381 c -3.1655,-3.985965 -10.94054,-6.260487 -12.51824,-11.710602 l 2.42288,0.403815 m -1.21144,0.403813 0.80763,0.807628 v -0.807628 h -0.80763 m -2.82669,1.615255 -0.40381,0.403815 0.40381,-0.403815 m 4.84576,0.403815 2.42289,2.01907 v -0.403815 l -2.42289,-1.615255 m -0.80763,1.211441 -0.40381,0.403814 0.40381,-0.403814 m 0.40383,0.807629 10.02791,7.672462 2.89412,3.634333 -1.61525,-2.422899 5.24957,2.422899 v 1.211441 c 2.42653,-0.510827 4.76865,1.711372 6.86484,2.759263 5.993,2.996684 15.36795,5.136904 18.97926,11.374204 l -9.28772,-2.82669 v 0.40381 l 6.86484,2.01908 v 0.4038 l -0.80764,0.40381 1.61525,0.40383 -0.4038,-0.80764 h 0.4038 c 2.86992,0.90616 4.2881,2.115185 5.6534,4.845765 l -5.6534,-1.21144 c -1.5688,-2.13901 -5.92273,-2.759255 -8.48009,-3.230515 v 0.40383 c 2.78915,0.513645 4.80983,2.368755 7.26865,3.163065 3.97758,1.28534 7.17941,0.2863 8.88392,4.9132 l -3.23052,-0.80762 -2.42288,-0.40382 v 0.40382 l 1.61525,0.80762 v 0.40383 l -3.2305,-0.40383 v 0.40383 l 2.42288,0.80761 -0.80763,0.80764 h 0.80763 v 0.40381 l -0.80763,0.40382 1.61525,0.40381 -0.40381,-1.61525 4.03813,1.21144 v 0.40381 l -5.24957,0.40381 v 0.40381 l 4.44196,1.21144 v -0.40381 l -0.80764,-0.40381 0.40381,-0.80763 c 2.16769,0.27983 3.79586,-0.64691 4.03815,2.42288 l -3.63432,-0.80763 v 0.40382 l 2.82669,0.40381 v 0.40381 l -2.01908,0.40382 -1.61525,1.21144 v -1.21144 c -1.49451,0.2754 -2.61995,0.59764 -2.82669,-1.21144 l -1.61526,0.40381 v 0.40381 l 2.01907,0.80763 v 0.40381 l -6.46102,-4.84575 0.40381,0.80762 -2.42288,-0.80762 v 0.40381 l 1.61525,0.40381 -0.40381,1.21144 c 1.52116,-0.11996 2.33162,-0.45389 2.82669,1.21144 -4.71129,0 -13.30687,-4.37329 -15.74874,-8.48009 l 1.21144,-0.40381 -1.21144,-1.61526 1.21144,-0.80763 -1.21144,-0.40381 c -0.78178,1.91932 -2.49597,-0.47247 -2.82669,-1.61526 l 2.82669,1.61526 v -1.21144 c -2.34091,-0.18495 -4.49121,-1.627365 -5.65338,-3.634325 l 3.63432,1.61525 1.21145,1.211445 v -0.403805 h -0.80764 v -0.40383 l 2.82669,0.807635 v -0.403805 l -3.63432,-1.21144 v -0.40383 l 1.21144,0.40383 -2.42288,-0.40383 c -0.68889,-0.94411 -5.63481,-3.34277 -3.2305,-3.63432 v -0.40381 l -3.63433,-1.21144 6.05721,6.86484 -4.03815,-2.42289 0.40383,1.61525 c 2.68495,0.77734 4.23559,1.472705 5.65338,4.038135 l -2.42288,-0.80762 v 0.40381 l 4.44195,3.23052 c -2.41238,-0.804 -6.52643,-3.58184 -4.44195,-5.24959 -1.67179,-0.19101 -3.48693,-0.47327 -3.2305,-2.422885 -2.89858,-0.91544 -7.4746,-4.05428 -5.6534,-7.26865 -1.38023,0.21807 -2.22339,0.29923 -2.01908,-1.21142 l -1.61525,-0.80762 0.40381,-0.807634 -2.82669,-2.42288 3.63432,2.42288 -2.82669,-3.230513 3.63433,1.615266 -2.01908,-4.845782 c -1.85351,-0.68294 -3.1138,-1.655761 -3.63432,-3.634327 l 0.80763,0.403814 -3.63432,-6.057207 m -65.821667,1.211441 c 0.629995,0.801812 2.49428,1.735712 0.807633,2.422883 v 0.403814 c 1.167104,0.03153 1.475371,0.02228 1.61525,1.211441 -1.673644,-0.191286 -5.927494,-4.051102 -2.422883,-4.77845 0.655636,-0.136079 1.258495,0.973353 0,0.740312 m 69.052167,-0.807628 v 0.807628 h 0.80763 l -0.80763,-0.807628 m -67.033093,0.807628 -0.403809,0.403813 0.403809,-0.403813 m 64.610203,0 1.21144,1.211442 -1.21144,-1.211442 m -67.436895,1.211442 v 0.403813 l 1.615251,0.403813 -1.615251,-0.807626 m 71.878855,0 v 0.403813 l 2.42288,0.807628 v -0.403815 l -2.42288,-0.807626 m -2.01907,0.403813 v 2.01907 l 1.61526,0.807627 -1.21144,-1.615255 h 0.80762 l -1.21144,-1.211442 m -3.2305,1.211442 1.21144,0.807628 -1.21144,-0.807628 m -65.417843,0.807628 2.826692,0.807627 -0.403809,1.211441 c 1.91088,0.40228 3.475735,2.140947 2.826692,4.038137 3.781117,0.398009 6.36839,6.960152 9.691532,8.883892 l 0.403809,2.01908 -1.211441,-0.40381 v 0.40381 l 2.826707,1.61525 -1.211442,-2.42288 2.422883,1.21144 -0.403824,1.21144 1.615266,-0.40381 c 3.035953,3.93557 10.668908,5.885575 14.941108,8.412645 1.57165,0.92959 4.71533,1.67907 4.44196,3.70177 2.31789,-0.42682 4.86191,2.84043 5.65338,4.84577 l -15.74874,-8.07629 0.80763,-1.21144 -1.211438,-0.40381 v 1.21144 h -0.403809 l -4.441958,-4.038125 -3.634324,-1.21144 0.403808,1.21144 -6.461016,-3.63433 5.249575,4.441945 -0.403809,-0.807615 h 0.403809 l 6.461032,6.461015 -9.287724,-4.84577 c 3.028123,3.61414 9.816271,3.68117 11.710607,8.4801 h 0.403809 l -1.615251,-3.23052 2.019059,0.80763 v -0.40381 l -2.422883,-1.21144 0.403824,-1.21145 0.807618,-0.40382 2.826711,1.21145 v 0.40382 L 66.5336,105.423 v 1.21144 l 1.61527,0.40382 c -0.36659,-1.97949 3.18407,0.43612 4.03813,0.87507 3.72275,1.91286 7.57029,3.61936 11.30678,5.58595 l -1.21144,0.40381 v 0.40381 c 1.58133,0.0415 4.55543,2.7322 2.42288,3.63432 v 0.40383 l 2.01907,4.44194 -9.28772,-3.63432 v 0.40382 c 2.62763,0.96793 10.62032,3.48895 9.28772,6.86482 l 1.21144,2.42289 -4.84576,-1.61525 v 0.40381 c 3.94769,0.83104 5.74384,2.89818 6.05721,6.86485 l -8.8839,-4.44197 2.01906,2.42288 h 1.21144 c 0,1.58378 1.96941,1.19208 3.23051,1.68271 2.14345,0.83347 3.55275,2.06793 4.03814,4.37452 l -1.21145,-0.40381 0.40383,-1.21144 -1.21144,0.80763 c -1.97021,-1.5555 -8.41467,-4.29335 -8.07628,-6.86486 -2.5618,-0.0675 -4.37128,-2.62115 -5.24957,-4.84576 l 2.01905,1.21144 -3.63432,-4.03814 0.40382,1.61525 -3.63432,-1.61525 v 0.40381 c 0.97117,0.30528 6.59993,3.27493 3.63432,3.63433 v 0.40381 c 1.96456,0.0517 2.73302,1.1961 3.63433,2.8267 l -1.61527,-0.40382 v 0.40382 l 3.23052,3.23052 h 0.40381 l -0.40381,-1.61527 c 2.24642,0.65016 4.53119,2.91354 6.46101,4.3075 3.78212,2.7314 7.05342,4.14596 9.28772,8.61457 l -2.01907,-0.40383 v 0.40383 c 1.93104,0.35575 3.67471,0.93361 4.44196,2.82669 l -7.26865,-3.63433 v -0.4038 l 2.82669,0.80761 -4.84577,-4.03813 c -1.40728,-0.0371 -2.21249,-0.18414 -2.01906,-1.61525 -1.31966,0.24308 -2.75077,-0.28228 -1.61526,-1.61527 l -4.84576,-3.63432 1.21144,2.42288 c -1.43636,-0.37797 -2.25813,-0.89849 -2.42288,-2.42288 l -1.61525,0.80763 c 1.94235,0.76684 5.85692,2.41037 6.46101,4.44196 -2.84688,-0.59927 -7.75281,-3.21155 -9.28771,-5.6534 l 2.8267,0.80763 v -0.40382 c -2.67244,-0.56251 -5.73901,-2.07643 -7.67246,-4.03815 -0.99342,-1.00792 -1.97195,-2.99145 0,-3.23052 v -0.4038 l -1.61527,-0.40381 v 0.80761 c -2.259209,-0.5944 -11.309284,-5.55768 -8.883898,-8.07626 l -4.038133,-2.82671 0.807617,-1.21144 -1.61525,0.40382 -1.61525,-3.63432 4.038133,2.01906 c -1.354144,-1.24739 -6.84558,-4.18351 -5.249575,-6.0572 -2.432666,-0.27783 -3.166949,-1.62253 -3.230516,-4.03815 l 1.211442,0.40382 c -2.151811,-1.98192 -5.013346,-3.824515 -5.653399,-6.864835 l 0.807632,0.40381 v -0.40381 l -1.211441,-4.03813 1.211441,0.40381 c -2.332103,-4.664041 -5.660786,-7.141026 -5.586077,-12.518227 0.01893,-1.359963 -1.584481,-2.02977 -0.874939,-3.23051 m 69.052163,1.211441 4.84577,4.038131 -1.21145,0.403824 v 0.403809 l 0.80762,0.403824 1.61527,2.826707 9.28771,4.038111 v 0.40381 l -2.8267,-1.21142 5.24958,3.63431 -0.80762,-0.40381 v 0.40381 0.40382 l 2.01906,1.21144 c -4.03651,-1.48724 -8.08878,-3.49704 -11.30678,-6.46102 l 2.42288,0.40383 v -0.40383 l -3.63432,-0.403804 0.40381,2.019074 -2.8267,-2.019074 5.6534,4.845754 -0.40382,-1.21144 6.86484,2.42288 v 0.40381 l -2.42288,0.40382 v 0.40381 l 1.61525,0.40381 c 0,-1.95122 2.98661,-0.22129 4.03815,0 v 1.21144 l 1.61525,-0.40381 0.4038,1.61525 -1.21144,-0.40381 v 0.40381 c 0.79149,0.2637 1.03135,0.40383 0,0.40383 v 0.4038 l 1.21144,-0.80763 h 0.40383 v 1.61527 l 3.2305,1.615245 -4.44194,-0.80763 v 0.40382 c 4.2574,1.12017 6.36976,2.59409 9.69153,5.65339 l -4.03815,-1.21144 v -0.40381 h 1.21144 v -0.40382 l -1.61525,-0.40382 v 0.80764 l -2.42288,-0.80764 v -0.40381 l 0.80763,-0.40381 -2.82671,-0.40382 v 0.40382 l 2.82671,1.21144 v 0.40382 l -0.80763,0.80763 -2.01908,-0.80763 v 0.40381 l 2.42289,1.21144 0.80763,-1.61525 h 0.40381 l 0.80763,0.40381 -0.40381,1.21144 c 4.25781,-0.33597 5.10622,2.30538 8.48009,4.03815 l -1.61526,-2.42288 4.03815,2.01906 c -0.25239,1.51389 1.568,1.07899 2.82669,1.21144 v -0.40381 l -1.61525,-0.40381 v -1.21144 l -2.82671,-0.40383 v -0.4038 h 1.61527 v -0.40381 c -3.29917,-0.69457 -5.64371,-2.00939 -8.07628,-4.44197 l 9.28772,4.03814 1.61525,-1.21144 v -0.40381 l -2.82669,-0.80763 v -0.40381 h 1.21144 v -0.40382 l -6.05721,-1.61526 v -1.21144 l -4.03815,-0.80762 0.80764,-0.80763 c -3.52772,-1.299865 -5.62755,-2.800855 -8.4801,-5.653395 l 4.44196,2.42288 -0.80763,0.80763 1.21144,0.40381 -0.40381,-0.80762 h 0.40381 l 2.01907,2.01906 h 2.01906 v -0.40381 c -1.59182,-1.00549 -7.26865,-3.40415 -7.26865,-5.24957 l -4.44194,-2.82671 5.24958,2.42289 -0.40381,1.21144 1.61525,0.40382 1.61525,-0.40382 -0.80762,1.21144 h 1.61525 v -0.40381 h -0.80763 v -0.40381 l 4.44196,1.21144 v -0.40382 l -0.80764,-0.80762 v -0.40382 l -6.0572,-1.21144 v -0.40381 l 1.61526,0.40381 v -0.40381 l -1.21144,-0.80764 h -0.40382 l -4.84577,-1.61525 0.80763,-0.80761 -4.84576,-2.422884 2.01907,0.80763 c -0.70022,-1.114126 -1.3229,-1.785253 -2.42288,-0.80763 V 86.03995 l -2.82671,-2.019059 1.21144,0.403808 v -0.403808 l -2.42288,-0.403824 0.40382,0.807632 h -0.40382 l -4.03813,-2.019089 0.80763,-0.403809 v -0.403809 l -3.63433,-1.211444 1.21144,-1.615255 -3.63432,-0.403814 m 7.26865,0 0.40381,0.403814 -0.40381,-0.403814 m -4.44196,0.403814 -0.40381,0.403813 0.40381,-0.403813 m -70.667412,0.403813 v 0.403815 l 1.615251,0.807627 -1.615251,-1.211442 m 69.859782,0 0.40382,0.807628 -0.40382,-0.807628 m 2.01907,0.403815 1.61525,1.211438 v -0.403811 l -1.61525,-0.807627 m -6.46101,0.403813 1.61525,2.422876 3.23051,2.019089 -1.61526,-0.403808 -0.40381,1.211441 h -0.80763 l -1.21145,-2.422898 1.61527,1.211457 -2.42288,-4.038157 m -65.417842,0.807625 4.441943,7.672466 -1.211442,-0.403804 1.211442,1.211444 v -0.80764 l 3.634324,6.86483 h -0.403808 l -2.422884,-2.42288 c 1.374138,2.37361 9.68555,8.082335 6.864841,10.902965 l 1.61525,-0.40381 1.615251,3.23051 -1.211442,-0.40381 v -1.21144 l -4.038133,-1.61526 v 0.40381 c 2.965487,2.20281 8.465515,5.71681 8.883899,9.69154 l -1.61525,-0.40382 v 0.40382 c 3.025742,2.07034 5.854205,4.58489 6.864841,8.07627 l -1.615266,-0.80762 0.403824,-0.80763 -3.230516,-1.21144 v 0.40381 l 1.615251,2.01907 c 1.832386,0.44581 4.845766,1.89469 4.845766,4.03813 l 2.422881,0.40383 v -0.40383 l -4.44194,-5.65338 7.26865,3.63432 v -0.40382 l -2.01908,-0.80762 0.80764,-1.21144 1.61525,0.40381 v -0.40381 c -1.10645,-0.29116 -2.67062,-0.57989 -2.42289,0.80762 l -6.057203,-3.2305 1.211442,-0.40383 v -0.40381 c -2.604108,0.13691 -4.148495,-2.0332 -4.845767,-4.44195 l 6.864841,4.03815 v 0.4038 l -1.211442,0.40381 v 0.40383 c 3.321479,-0.78663 6.954479,2.13011 8.883899,4.84576 h 0.40381 l -0.80762,-1.61526 0.40381,-0.40381 1.61525,2.42288 v 0.40381 l 8.07628,3.23052 v -0.40381 l -2.01907,-0.80763 v -0.40381 h 1.21144 v -0.40383 c -2.71645,0.14301 -8.8839,-2.93612 -8.8839,-6.0572 -2.59409,-0.77128 -4.15484,-4.5538 -5.24957,-6.86483 l 5.24957,4.44194 v 0.40383 l -1.61525,-0.40383 v 0.40383 l 1.61525,1.21144 4.03813,0.80762 v -0.40381 c -1.85874,-0.97845 -4.6285,-2.35303 -5.24957,-4.44196 h 1.61525 v -0.40381 l -1.61525,-0.40381 -4.03813,-1.61526 0.80761,-0.80762 -2.826688,-1.21144 1.211438,2.82669 -4.845763,-2.42288 1.61525,-1.21145 v -0.4038 l -1.211441,-0.80764 h -0.403809 l -1.211442,1.61527 h -0.403808 c -0.543901,-0.74181 -3.986944,-2.56423 -2.019075,-2.82671 v -0.40381 c -2.194529,-0.57745 -3.960326,-1.17954 -5.249575,-3.23052 l 0.807618,0.40382 -2.422883,-2.8267 2.019074,0.80763 -3.230516,-3.230515 h 1.615266 l -0.403824,-1.21144 H 49.16961 l 0.807633,-1.61525 1.61525,0.80763 c -2.540265,-4.38785 -9.066314,-6.86443 -8.480091,-12.922042 l -0.807633,0.807648 H 41.90096 l -2.826692,-3.230532 m 2.422884,0 -0.403825,1.211442 1.211442,0.403809 0.403824,-1.211442 -1.211441,-0.403809 m 76.590148,0.134614 0.26895,0.134613 -0.26895,-0.134613 m 0.94211,0.269226 v 0.807633 h 0.80761 l -0.80761,-0.807633 m -74.301758,0.807633 -0.403809,0.403808 0.403809,-0.403808 m 67.436918,0.807632 c 2.69748,0.993863 6.56722,2.852943 7.67245,5.653401 l -4.44194,-2.019076 V 86.03998 l 1.61525,0.403809 V 86.03998 h -2.01907 -0.40381 l -3.23052,-2.019074 0.80764,-1.211442 m 10.09534,0.807618 v 0.403824 h 1.61526 l -1.61526,-0.403824 m -82.378024,0 0.807633,0.807633 v -0.807633 h -0.807633 m 7.268649,0 0.403824,0.403824 -0.403824,-0.403824 m 59.764455,0.403824 0.40381,0.403809 -0.40381,-0.403809 m 6.05721,0 v 0.403809 l 1.61525,0.403824 v -0.403824 l -1.61525,-0.403809 m -69.052165,0.403809 0.403808,0.403824 -0.403808,-0.403824 m 0.807617,0.403824 0.403824,0.403809 -0.403824,-0.403809 m -4.038133,0.403809 0.807633,0.807632 -0.807633,-0.807632 m 85.474061,0.13446 0.26894,0.134918 -0.26894,-0.134918 m -81.839737,0.269348 0.403809,1.615251 h 0.403824 v -1.615251 h -0.807633 m 4.038134,0 1.615266,0.807618 v -0.403809 l -1.615266,-0.403809 m 72.282683,0 v 0.403809 l 1.21144,0.403809 -1.21144,-0.807618 m -10.49917,0.403809 1.21144,0.807633 -1.21144,-0.807633 m 18.03716,0.134461 0.26894,0.134918 -0.26894,-0.134918 m -87.493131,0.269348 0.807633,0.807617 -0.807633,-0.807617 m 71.071241,0 1.21144,1.211441 -1.21144,-1.211441 m 11.71059,0.403809 v 1.211438 l 1.61526,0.403804 v -0.403804 l -0.80763,-0.403806 c 1.18278,-0.514063 -0.0783,-0.728879 -0.80763,-0.807632 m 6.05721,0.403808 v 0.403824 h 1.61526 l -1.61526,-0.403824 m -82.781833,0.403824 0.403808,1.61525 h 0.403824 v -1.61525 h -0.807632 m 4.038133,0 0.403824,0.403806 -0.403824,-0.403806 m 81.16658,0 v 0.403806 l 2.01907,1.211444 -2.01907,-1.61525 m -86.819964,0.403806 0.807618,0.807634 -0.807618,-0.807634 m 6.461017,0 0.807633,0.807634 -0.807633,-0.807634 m 62.994957,0 -0.40381,0.403804 0.40381,-0.403804 m 6.86484,0.403804 1.61525,1.21145 v 0.40382 l -1.61525,-1.61527 m -70.66743,0.40383 0.403824,0.40381 -0.403824,-0.40381 m 63.80259,0 2.42288,2.01904 v 0.40383 c -1.27605,-0.3695 -3.33065,-0.88679 -2.42288,-2.42287 m 12.11441,0 1.21145,0.80762 -1.21145,-0.80762 m -62.187319,0.40381 v 0.80763 l 0.807618,-0.80763 h -0.807618 m 52.899599,0 1.21144,1.21142 -1.21144,-1.21142 m 7.26865,0.80763 -1.21144,-0.80763 1.21144,0.80763 m 10.09536,-0.80763 v 0.40381 l 1.21144,0.40382 -1.21144,-0.80763 m -8.48009,0.40381 v 0.40382 l 1.61525,0.8076 v -0.40381 l -1.61525,-0.80761 m 2.82669,0 v 0.40382 l 1.21144,0.40379 -1.21144,-0.80761 m -85.204715,0.40382 0.807617,0.8076 -0.807617,-0.8076 m 8.883899,0 0.403809,0.40379 -0.403809,-0.40379 m 61.379706,0 -0.40382,0.40379 0.40382,-0.40379 m 23.01739,0 1.21144,1.21143 -1.21144,-1.21143 m -88.839053,0.40379 0.807633,0.80764 -0.807633,-0.80764 m -1.211442,0.40381 0.403824,0.40383 -0.403824,-0.40383 m 71.878875,0 1.21144,0.80764 v -0.40381 l -1.21144,-0.40383 m 10.09534,0 v 0.40383 l 1.61525,0.40381 v -0.40381 l -1.61525,-0.40383 m -84.935504,0.53829 0.269195,0.13492 -0.269195,-0.13492 m 0.94223,-0.13446 0.807618,0.80763 -0.807618,-0.80763 m 11.306783,0 0.807633,0.80763 -0.807633,-0.80763 m 71.340591,0.13446 0.26893,0.13492 -0.26893,-0.13492 m 11.44124,-0.13446 1.21144,1.21144 -1.21144,-1.21144 m -84.397081,0.40382 1.211441,0.80762 v -0.40381 l -1.211441,-0.40381 m 66.225461,0 1.21144,0.80762 v -0.40381 l -1.21144,-0.40381 m 10.90297,0 v 0.40381 h 1.21144 l -1.21144,-0.40381 m -81.570389,0.40381 v 0.40381 l 2.019075,0.40382 v -0.40382 l -2.019075,-0.40381 m 7.26865,0 1.211441,0.80763 -1.211441,-0.80763 m -10.499166,0.40381 2.019075,1.61526 0.403808,1.61525 c -1.472777,-0.46519 -3.080808,-1.62211 -2.422883,-3.23051 m 65.821665,0 c 1.15531,1.99565 3.36578,4.24368 5.65338,4.84576 v -0.4038 l -1.21144,-0.40381 v -0.40383 h 1.21144 v -0.40381 l -1.21144,-0.4038 v 0.80761 l -1.61525,-0.80761 1.21144,-0.40383 v -0.40381 l -4.03813,-2.01907 m 1.21144,0 1.21144,0.80763 -1.21144,-0.80763 m 20.59451,0 v 0.40382 l 1.21144,0.40381 -1.21144,-0.80763 m -84.800907,0.40382 0.403808,0.40381 -0.403808,-0.40381 m 68.244527,0 v 0.40381 h 1.21144 l -1.21144,-0.40381 m 13.72967,0 v 0.40381 h 1.21144 l -1.21144,-0.40381 m 9.28772,0 0.80764,0.80762 -0.80764,-0.80762 m 1.21144,0 1.21145,1.21144 -1.21145,-1.21144 m -90.858107,0.40381 0.403809,0.40381 -0.403809,-0.40381 m 86.416157,0 v 0.80763 h 0.80763 l -0.80763,-0.80763 m -79.147508,0.40381 v 0.40382 l 1.615251,0.40381 v -0.40381 l -1.615251,-0.40382 m 70.667418,0.13446 0.13446,0.13492 c -0.19907,0.0662 -0.44661,-0.13492 -0.13446,-0.13492 m 5.6534,-0.13446 v 0.40382 l 1.61525,0.40381 v -0.40381 l -1.61525,-0.40382 m -83.993276,0.80763 0.403809,0.40381 -0.403809,-0.40381 m 94.088616,0 0.80763,1.21144 -0.80763,-1.21144 m -101.357265,0.40381 1.61525,1.21144 v -0.40381 l -1.61525,-0.80763 m 82.378025,0 -0.40383,0.40383 0.40383,-0.40383 m 11.30678,0 1.61525,1.21144 v -0.40381 l -1.61525,-0.80763 m 6.46101,0 1.21145,1.21144 -1.21145,-1.21144 m -4.44194,0.40383 1.21144,0.80761 -1.21144,-0.80761 m 7.26865,0 0.80762,0.80761 -0.80762,-0.80761 m -92.069551,0.4038 2.826692,2.8267 -0.807633,-2.01906 -2.019059,-0.80764 m 5.92261,0.13446 0.26918,0.13492 -0.26918,-0.13492 m 61.918111,-0.13446 v 0.40381 l 2.01906,0.80764 -2.01906,-1.21145 m -73.49412,0.40381 -0.403809,0.40383 0.403809,-0.40383 m 4.038133,0 0.807633,0.80764 v -0.80764 h -0.807633 m 8.883915,0 0.403809,0.40383 -0.403809,-0.40383 m 3.903536,0.13446 0.269196,0.13492 -0.269196,-0.13492 m 1.749846,-0.13446 3.63433,2.42289 -3.63433,-2.42289 m -4.845764,0.40383 0.807633,0.80761 -0.807633,-0.80761 m 71.878874,0 v 0.40381 l 1.61525,0.4038 v -0.4038 l -1.61525,-0.40381 m 12.51822,0 2.01908,1.21144 v -0.40383 l -2.01908,-0.80761 m -100.684241,0.53828 0.269195,0.13492 -0.269195,-0.13492 m 11.037572,-0.13446 1.211441,0.80762 -1.211441,-0.80762 m 88.839039,0 1.21144,1.21144 -1.21144,-1.21144 m -81.166581,0.80762 v 0.40382 l 1.615261,0.40381 c 0,-0.98368 0.31744,-0.65215 1.21145,-0.40381 l -2.826711,-0.40382 m 68.648351,-0.40381 0.40381,0.40381 -0.40381,-0.40381 m 0.80764,0.40381 v 0.40382 l 1.21144,0.40381 -1.21144,-0.80763 m -90.050498,0.40382 1.211442,0.80762 v -0.40381 l -1.211442,-0.40381 m 15.614158,0.13446 0.26918,0.13492 -0.26918,-0.13492 m -7.941684,0.26934 v 0.40382 l 1.61525,0.40381 v -0.40381 l -1.61525,-0.40382 m 6.461016,0 v 0.40382 l 1.211442,0.40381 -1.211442,-0.80763 m 61.379708,0 -0.40383,0.40382 0.40383,-0.40382 m 10.09534,0 8.07628,5.653395 2.82669,0.4038 v 0.40384 c -1.74487,0 -3.80028,0.0626 -4.03813,-2.01909 -1.86279,0.29399 -7.29571,-2.54644 -6.86484,-4.441945 m 7.67246,0 1.21144,0.80763 -1.21144,-0.80763 m -90.858115,0.40382 0.403824,0.40381 -0.403824,-0.40381 m 21.805945,0 0.80764,0.80762 -0.80764,-0.80762 m 4.03815,0 v 0.40381 l 1.61525,0.807625 -1.61525,-1.211435 m -24.228829,0.40381 0.807617,0.807625 -0.807617,-0.807625 m 13.325857,0 v 0.40381 H 63.3031 v 0.403815 h -0.807633 v 0.40381 l 1.61525,-0.40381 v -0.403815 l -2.019059,-0.40381 m 9.287712,0 2.01907,1.211435 v -0.40381 l -2.01907,-0.807625 m 4.03815,0 1.21144,0.807625 v -0.403815 l -1.21144,-0.40381 m 54.51486,0 -0.40382,0.40381 0.40382,-0.40381 m 10.49915,0 v 0.40381 h 1.21144 l -1.21144,-0.40381 m 8.07628,0 c 0.37797,1.271205 0.71516,1.451705 2.01908,1.211435 l -1.21144,-1.211435 0.4038,1.211435 h -0.4038 l -0.80764,-1.211435 m -79.95514,0.40381 v 0.807625 h 0.80764 l -0.80764,-0.807625 m -16.556368,0.403815 -0.403809,0.40381 0.403809,-0.40381 m 2.692109,0.13446 0.26918,0.13492 -0.26918,-0.13492 m 4.57654,-0.13446 3.230516,2.01906 -0.807633,0.40382 v 0.40381 l 3.230516,0.80764 v 0.40381 l -1.211441,-0.40381 c 0.335281,1.8107 -4.938638,-1.81313 -4.441958,-3.63433 m 75.109369,0 -0.40381,0.40381 0.40381,-0.40381 m 8.48009,0 v 0.40381 l 1.61527,0.40381 v -0.40381 l -1.61527,-0.40381 m -95.300051,0.40381 v 0.40381 h 1.211442 l -1.211442,-0.40381 m 17.363991,0 0.403809,0.80763 H 64.91835 l -0.807633,-0.40382 h -0.403808 v 0.40382 l 1.211441,0.80762 h 0.403809 l 1.211441,-0.40381 v -0.40381 l -1.61525,-0.80763 m 4.84577,0 0.40381,0.40381 -0.40381,-0.40381 m 1.61525,0 1.61526,1.21144 v -0.40381 l -1.61526,-0.80763 m 65.01403,0 v 0.40381 h 1.21144 l -1.21144,-0.40381 m -60.57208,0.40381 v 0.40382 l 1.61525,0.80762 v -0.40381 l -1.61525,-0.80763 m 69.45598,0 0.80763,0.80763 -0.80763,-0.80763 m 1.21144,0 0.80763,0.80763 -0.80763,-0.80763 m -96.511497,0.40382 -0.807633,1.21144 h 2.019074 l -1.211441,-1.21144 m 7.268649,0 v 0.80762 l 0.807617,-0.80762 h -0.807617 m 17.363988,0 1.21144,0.80762 v -0.40381 l -1.21144,-0.40381 m 57.74538,0 -0.40382,0.40381 0.40382,-0.40381 m 18.57544,0 -0.40381,1.61525 h 0.40381 l 0.80763,-0.40381 -0.80763,-1.21144 m -29.0746,0.40381 0.40381,0.40381 -0.40381,-0.40381 m 6.05721,0 v 0.40381 l 2.01907,0.40382 -2.01907,-0.80763 m 11.7106,0 v 0.40381 l 1.61525,0.40382 v -0.40382 l -1.61525,-0.40381 m -89.242859,0.40381 -0.403808,0.40382 0.403808,-0.40382 m 17.633219,0.13446 0.26918,0.13492 -0.26918,-0.13492 m 6.99942,0.26935 3.23052,2.82671 -3.23052,-2.82671 m 56.53394,0 1.61525,1.21144 v -0.40381 l -1.61525,-0.80763 m -72.686488,0.40381 0.403809,0.40382 -0.403809,-0.40382 m 10.902978,0 v 0.80763 h 0.80763 l -0.80763,-0.80763 m -1.34604,0.53828 0.26907,0.13492 -0.26907,-0.13492 m 10.63376,-0.13446 1.61525,1.61528 v -1.61528 h -1.61525 m 47.24622,0 0.4038,0.80764 -0.4038,-0.80764 m 4.03813,0 -0.40381,0.40383 0.40381,-0.40383 m 6.46102,0 -0.40381,0.40383 0.40381,-0.40383 m 5.65339,0 v 0.40383 l 1.21145,0.40381 -1.21145,-0.80764 m -86.819974,0.40383 1.211442,1.21145 -1.211442,-1.21145 m 22.209774,0 1.61525,1.21145 -1.61525,-1.21145 m 67.03309,0 v 0.40381 l 1.21144,0.4038 -1.21144,-0.80761 m 6.86484,0 1.21144,1.61525 c 0.2548,-1.17874 0.0356,-1.4727 -1.21144,-1.61525 m -71.07124,0.40381 -0.40381,0.4038 0.40381,-0.4038 m 1.21144,0 0.80763,0.80764 -0.80763,-0.80764 m -12.51822,0.4038 v 0.40384 l 1.21144,0.4038 -1.21144,-0.80764 m 1.61525,0 v 0.40384 l 1.61525,0.4038 v -0.4038 l -1.61525,-0.40384 m -21.80595,0.40384 v 0.4038 l 1.61525,0.80764 -1.61525,-1.21144 m 9.287723,0 2.01906,2.01905 -2.01906,-2.01905 m 83.589467,0 2.82669,1.21144 v 0.40381 l -4.44196,-0.80764 v -0.40381 l 1.21144,0.40381 0.40383,-0.80761 m 4.03813,0 v 0.80761 h 0.80763 v -0.80761 h -0.80763 m 2.01907,0 1.21145,0.80761 -1.21145,-0.80761 m -92.473374,0.80761 c 5.313799,3.07626 14.370524,7.58727 15.748744,14.13349 -4.55893,-1.67946 -10.528518,-5.38122 -13.864267,-8.95134 -1.211396,-1.29624 -3.09923,-3.51197 -1.884477,-5.18215 m 16.152564,0 1.21144,0.80764 v -0.40381 l -1.21144,-0.40383 m 1.61525,0 v 0.40383 h 1.21144 l -1.21144,-0.40383 m 8.48009,0 0.40381,0.40383 -0.40381,-0.40383 m 51.28435,0.13446 c 0.31216,0 0.0646,0.20111 -0.13446,0.13492 l 0.13446,-0.13492 m -75.513179,0.26935 -0.403809,0.40383 0.403809,-0.40383 m 23.017389,0 1.21144,1.21144 -1.21144,-1.21144 m 72.28268,0 0.40381,1.21144 h 0.40381 v -1.21144 h -0.80762 m -21.80595,0.40383 -0.40382,1.21144 0.40382,0.40381 0.40381,-0.80764 6.86484,3.23052 v -0.40381 l -7.26865,-3.63432 m -79.147518,0.4038 v 0.40381 l 1.615265,0.40383 v -0.40383 l -1.615265,-0.40381 m 8.883915,0 0.403808,0.40381 -0.403808,-0.40381 m 8.076263,0.40381 c 0.43128,1.17631 1.18197,1.24093 2.01908,0.40383 l -2.01908,-0.40383 m 5.24959,-0.40381 0.80762,0.80764 v -0.80764 h -0.80762 m 8.8839,0 0.40381,0.40381 -0.40381,-0.40381 m 50.88054,0 v 0.40381 h 1.61525 l -1.61525,-0.40381 m 10.49917,0 -0.40383,0.40381 0.40383,-0.40381 m -85.204729,0.40381 v 0.40383 l 1.211442,0.40381 -1.211442,-0.80764 m 6.864841,0.80764 8.883898,4.44194 v 0.40381 l -1.21144,-0.40381 0.80763,1.21144 h 0.40381 2.42288 c -0.36221,1.05638 -0.24631,1.15006 0.80764,1.61525 l -0.40381,-0.80762 h 0.40381 l 6.46101,3.2305 v -0.40381 l -0.80762,-1.21144 -2.8267,-0.40381 -1.21144,-2.42288 0.40382,1.61525 -2.42288,-1.21144 0.40381,-1.21144 H 77.8404 77.43657 l 0.40383,0.80763 h -0.40383 l -2.42288,-1.21144 1.21144,-0.40382 v -0.40381 l -3.2305,-0.40381 0.80762,-2.01906 -1.61525,-0.40382 v 0.40382 l 1.21144,0.40381 v 0.40381 l -1.61525,-0.40381 0.40381,0.80763 c -1.71984,-0.6336 -4.65336,-3.67834 -6.057208,-2.01907 m 82.378018,-0.80764 4.44196,2.82671 v 0.40381 l -2.01907,-0.40381 v -0.40382 h 0.80763 v -0.40381 H 148.104 v -1.61525 l 0.40381,-0.40383 m -78.33988,0.40383 -0.40381,0.40381 0.40381,-0.40381 m 10.49916,0 1.21144,1.21144 -1.21144,-1.21144 m 60.16826,0 0.80762,0.40381 v 0.40381 l -0.80762,-0.80762 m -89.242857,0.40381 0.807633,0.80763 v -0.80763 h -0.807633 m 24.228827,0.40381 v 0.40382 l 2.01908,-0.40382 h -2.01908 m 60.57208,-0.40381 1.21144,0.80763 -1.21144,-0.80763 m -79.551332,0.40381 1.211441,0.80763 v -0.40381 l -1.211441,-0.40382 m 25.844092,0 2.01906,3.2305 -2.01906,-3.2305 m 49.26528,0 v 0.40382 h 1.21144 l -1.21144,-0.40382 m 11.71061,0 v 0.40382 h 1.21144 l -1.21144,-0.40382 m 6.32655,0.13446 0.26894,0.13491 -0.26894,-0.13491 m 4.57642,-0.13446 0.80763,1.21144 -0.80763,-1.21144 m -92.473362,0.53828 c 0.312312,0 0.06471,0.2011 -0.134613,0.13492 l 0.134613,-0.13492 m -8.076282,0.26935 1.211442,0.80763 v -0.40382 l -1.211442,-0.40381 m 14.133494,0 1.61525,1.21144 v -0.40381 l -1.61525,-0.80763 m 85.60852,0 0.80763,1.21144 -0.80763,-1.21144 m -89.646673,0.40381 v 0.40382 h 1.211442 l -1.211442,-0.40382 m 20.594503,0 1.61526,1.61525 -1.61526,-1.61525 m 49.26529,0 v 0.40382 l 2.42289,0.80762 -2.42289,-1.21144 m -76.320809,0.40382 v 0.40381 l 1.211441,0.40381 -1.211441,-0.80762 m 14.941109,0.13446 0.13446,0.13492 c -0.19908,0.0662 -0.44662,-0.13492 -0.13446,-0.13492 m 2.01907,-0.13446 v 0.40381 l 1.21144,0.40381 -1.21144,-0.80762 m 5.24958,0 0.40382,0.40381 -0.40382,-0.40381 m -8.07627,0.40381 1.21144,0.80762 v 0.40381 l -1.21144,-1.21143 m -16.556372,0.40381 0.403808,0.40381 -0.403808,-0.40381 m 5.249575,0 v 0.40381 h 1.615265 l -1.615265,-0.40381 m 76.320817,0 v 0.40381 l 2.42288,0.40381 v -0.40381 l -2.42288,-0.40381 m 18.17162,0 0.40382,1.21144 h 0.40381 l -0.80763,-1.21144 m 15.74874,0 -0.40381,0.40381 0.40381,-0.40381 m -114.279311,0.40381 0.403809,0.40381 -0.403809,-0.40381 m 20.594511,0 0.4038,0.40381 -0.4038,-0.40381 m 89.51219,0.26935 -0.13492,0.26893 0.13492,-0.26893 m 1.34592,-0.13492 c 0.31214,0 0.0646,0.20111 -0.13446,0.13492 l 0.13446,-0.13492 m 1.21144,0 c 0.31214,0 0.0646,0.20111 -0.13446,0.13492 l 0.13446,-0.13492 m 4.84577,-0.13446 0.4038,4.84576 h 0.40383 v -3.63432 h 0.80762 v 2.42288 h 0.40382 l 0.40381,-3.23051 h 0.80763 l 0.40381,1.21144 h 1.21144 l 1.21144,-1.21144 v 2.42288 h 0.40381 v -1.61525 h 1.21144 v 2.82669 l -1.21144,-0.80762 h -0.40381 c -0.0464,1.76305 -1.33662,3.05041 -2.82669,1.61525 l -5.24959,1.61525 0.40382,-5.24957 h 1.61526 v -1.21144 m -113.875506,0.40381 0.403809,0.40382 -0.403809,-0.40382 m 10.095346,0 v 0.40382 l 1.61526,0.80762 -1.61526,-1.21144 m 7.9418,0.13446 0.26895,0.13491 -0.26895,-0.13491 m 6.99931,-0.13446 1.61525,2.01907 -1.61525,-2.01907 m 59.76445,0 1.61525,0.80763 v -0.40381 l -1.61525,-0.40382 m 4.44196,0 -0.40383,0.40382 0.40383,-0.40382 m 14.9411,0 v 0.80763 h -0.80763 v -0.80763 h 0.80763 m 0.80764,0.13446 c 0.31214,0 0.0645,0.20109 -0.13446,0.13491 l 0.13446,-0.13491 m 5.65338,-0.13446 v 0.80763 h -0.80762 l 0.80762,-0.80763 m 1.21144,0 -0.40381,5.65339 c -1.12785,0.18292 -1.46827,0.40423 -1.61525,-0.80763 h -0.40382 v 1.21144 c -1.74367,0 -2.37443,-0.17444 -2.42289,-2.01906 h -0.4038 v 2.01906 l -10.49917,-1.21144 v -2.01906 h 0.40382 v 1.21144 c 0.93199,-0.63036 1.07051,-0.76039 1.21145,0.40381 h 0.4038 v -2.01907 h 0.40381 v 2.01907 h 0.40383 l 1.21144,-2.01907 v 1.61526 h 0.40381 v -2.01907 l 1.21144,0.80763 2.42288,-1.61526 v 1.61526 h 0.40381 l 0.40383,-1.21144 h 0.4038 v 1.61525 h 0.40381 v -2.42288 l 2.01908,2.01907 h 0.40381 l 0.40382,-2.42288 2.01906,1.61525 h 0.40382 v -2.01907 h 0.80762 m 0.80763,0.13446 c 0.31215,0 0.0646,0.20109 -0.13446,0.13491 l 0.13446,-0.13491 m 5.6534,-0.13446 -0.40382,0.40382 0.40382,-0.40382 m 2.82669,0.13446 c 0.31215,0 0.0646,0.20109 -0.13446,0.13491 l 0.13446,-0.13491 m 1.21145,-0.13446 0.80763,1.21144 1.61525,0.40382 v -1.21144 l 1.21144,0.40381 v 0.80763 l -4.03813,1.61525 0.40381,-3.23051 m -102.97253,0.40382 0.80763,0.80762 -0.80763,-0.80762 m 83.58946,0.80762 -4.03813,0.40382 c 0.78703,-0.96593 3.44008,-1.87169 4.03813,-0.40382 m 4.84577,-0.80762 -0.40381,0.40381 0.40381,-0.40381 m -24.22883,0.40381 v 0.40381 l 1.61525,0.80763 -1.61525,-1.21144 m -89.646674,0.40381 v 0.40382 l 1.61525,0.40381 v -0.40381 l -1.61525,-0.40382 m 8.076282,0 1.211442,0.80763 -1.211442,-0.80763 m 3.903536,0.13446 0.269196,0.13492 -0.269196,-0.13492 m 72.417276,-0.13446 0.80762,0.40382 v 0.40381 l -0.80762,-0.80763 m 20.05622,0.26935 -0.13492,0.26893 0.13492,-0.26893 m -94.357973,0.13446 v 0.4038 l 1.615266,0.40381 v -0.40381 l -1.615266,-0.4038 m 83.589463,0 v 0.4038 h 2.01907 l -2.01907,-0.4038 m 9.69153,0 -0.40381,0.4038 0.40381,-0.4038 m -17.36399,0.4038 4.03813,0.40381 v 0.40383 l -0.80761,0.80761 -3.63433,-1.21144 0.40381,-0.40381 m 23.15187,0.26935 0.13492,0.26894 -0.13492,-0.26894 m 15.34491,0 0.13492,0.26894 -0.13492,-0.26894 m 8.74944,-0.26935 c 0,1.66008 1.4921,4.9657 0.60572,6.39359 -0.64044,1.03175 -3.45907,2.32879 -4.44195,1.14441 -1.19247,-1.43718 -0.0655,-3.17398 -1.81717,-4.30748 l 5.6534,-3.23052 m -123.97084,0.40381 1.211441,0.80764 -1.211441,-0.80764 m 11.30678,0 v 0.40383 l 1.61525,0.80761 -1.61525,-1.21144 m 3.23052,0 -0.40383,0.40383 0.40383,-0.40383 m 99.3382,0 v 1.21144 h 0.40381 l -0.40381,-1.21144 m 9.28771,0 v 1.61527 h 0.40382 l -0.40382,-1.61527 m -119.25967,0.53829 0.26919,0.13492 -0.26919,-0.13492 m 15.0757,-0.13446 v 0.40381 l 1.21144,0.4038 -1.21144,-0.80761 m 73.09031,0 0.40381,1.61525 c -1.35561,-0.15951 -1.38508,-0.81571 -0.40381,-1.61525 m 13.72967,0 0.40381,0.40381 -0.40381,-0.40381 m -111.856428,0.40381 v 0.4038 l 1.211441,0.40383 -1.211441,-0.80763 m 16.152548,0 1.21144,1.21144 -1.21144,-1.21144 m 7.26865,0.13446 c 0.31214,0 0.0646,0.20111 -0.13446,0.13491 l 0.13446,-0.13491 m 6.0572,-0.13446 0.40381,0.4038 -0.40381,-0.4038 m 76.4553,0.26934 0.13492,0.26894 -0.13492,-0.26894 m 4.71129,-0.26934 v 1.21144 h 0.40381 l -0.40381,-1.21144 m 10.49916,0 0.40381,0.4038 -0.40381,-0.4038 m -112.394846,0.53828 0.269196,0.13492 -0.269196,-0.13492 m 86.146946,-0.13446 -0.40381,0.40382 0.40381,-0.40382 m 2.01907,0 v 0.40382 l -1.21144,0.40381 1.21144,-0.80763 m 7.26865,0 0.40381,0.40382 -0.40381,-0.40382 m 11.30678,0 v 1.61527 h 0.40381 l -0.40381,-1.61527 m 2.8267,0 v 1.21144 h 0.40382 l -0.40382,-1.21144 m -108.62592,0.40382 0.40381,0.40381 -0.40381,-0.40381 m 10.09535,0 v 0.40381 l 1.61525,0.40381 v -0.40381 l -1.61525,-0.40381 m 73.49412,0.40381 v 3.63433 c -1.33583,-0.10546 -2.21129,-0.27097 -2.01908,-1.61525 l -2.82669,-1.61527 2.01906,0.40383 -0.80762,-1.21145 3.63433,0.40381 m 18.57543,-0.40381 0.40381,0.40381 -0.40381,-0.40381 m 1.34592,0.26934 0.13491,0.26893 -0.13491,-0.26893 m 7.9418,-0.26934 0.40381,0.40381 -0.40381,-0.40381 m 6.86483,0 c -1.06082,0.81812 -2.9119,5.27139 0,4.77833 1.30916,-0.22129 1.16136,-2.06026 2.01907,-2.75927 l -0.40381,-1.61525 h -0.40382 l -0.40381,0.80764 -0.80763,-1.21145 m -122.759403,0.40381 0.403809,0.40381 -0.403809,-0.40381 m 13.325853,0 v 0.40381 l 1.61525,0.80763 -1.61525,-1.21144 m -17.363987,0.40381 1.211442,0.80763 v -0.4038 l -1.211442,-0.40383 m 9.691537,0.40383 v 0.4038 h 1.61525 l -1.61525,-0.4038 m 12.11441,-0.40383 1.21144,0.80763 v -0.4038 l -1.21144,-0.40383 m 71.47505,0 0.80762,1.61527 0.80763,-0.80764 h 0.40381 l 0.40382,1.21145 c 2.82912,-0.22332 4.6063,-0.88637 6.86483,0.80763 l -0.40381,-1.21144 h 1.61525 v 1.21144 l 3.63432,-0.80763 c 0,1.22113 0.67559,0.65781 1.21144,0 l 8.4801,0.26934 5.11511,-0.87507 1.34592,4.64386 c -4.09064,1.83008 -15.49072,3.82776 -18.97926,1.21144 l 0.40381,1.21144 c -4.2578,0 -8.48009,0.46762 -12.11442,-2.01906 l -0.4038,-2.01907 2.01907,0.40381 v -0.40381 l -2.01907,-1.61525 2.01907,0.40381 v -0.40381 c -1.34633,-0.54596 -2.1273,-1.56762 -1.21144,-2.82671 m 16.15255,0 0.80763,0.80763 -0.80763,-0.80763 m -88.97352,0.53829 0.26894,0.13491 -0.26894,-0.13491 m 68.78282,-0.13446 v 0.4038 l 2.42288,1.21145 v -0.40381 l -1.21144,-0.40383 0.80763,-0.40381 -2.01907,-0.4038 m 8.07628,0 v 0.4038 h -1.61525 l 1.61525,-0.4038 m 29.88223,0 v 2.82669 h -0.40382 l 0.40382,-2.82669 m -29.0746,0.4038 -0.40382,0.40381 0.40382,-0.40381 m 0.80762,0 -0.40381,0.40381 0.40381,-0.40381 m 24.22883,0 0.40383,1.61525 h -0.40383 v -1.61525 m -104.18397,0.40381 v 0.40383 l 2.01908,0.80761 v -0.4038 l -2.01908,-0.80764 m 10.09536,0 0.4038,0.40383 -0.4038,-0.40383 m -4.03815,0.40383 v 0.40381 l 1.61526,0.80763 -1.61526,-1.21144 m 103.37635,0 0.40381,1.61525 h 0.40381 l -0.80762,-1.61525 m -125.720702,0.53828 0.269195,0.13492 -0.269195,-0.13492 m 5.384172,-0.13446 1.21144,1.21144 -1.21144,-1.21144 m 7.26865,0 v 0.40381 l 1.61527,0.40382 v -0.40382 l -1.61527,-0.40381 m 6.05721,0 1.21144,0.80763 -1.21144,-0.80763 m 2.42288,0 0.40382,0.40381 -0.40382,-0.40381 m 73.49412,0 0.40381,0.40381 -0.40381,-0.40381 m 1.21144,0 v 0.40381 h 1.21144 l -1.21144,-0.40381 m 21.80595,0 v 0.40381 h 1.21144 l -1.21144,-0.40381 m -2.82669,0.40381 v 0.40382 h 1.61525 l -1.61525,-0.40382 m -8.07628,0.40382 1.61525,0.80762 -1.61525,-0.80762 m 2.82669,0 v 0.40381 h 2.01907 l -2.01907,-0.40381 m 2.82671,0 v 0.40381 h 1.61525 l -1.61525,-0.40381 m 11.30678,0 -0.40381,0.40381 0.40381,-0.40381 m -112.26025,0.40381 0.40382,0.80764 -0.40382,-0.80764 m 47.24621,0 v 0.40381 h -2.82669 l 2.82669,-0.40381 m 62.45668,0.26935 -0.13492,0.26894 0.13492,-0.26894 m -105.79922,0.26894 0.26894,0.13492 -0.26894,-0.13492 m 7.80693,-0.13446 0.40381,0.40382 -0.40381,-0.40382 m -1.61525,0.40382 0.40381,0.40381 -0.40381,-0.40381 m 35.53561,0 0.40381,2.01906 0.40383,-2.01906 c 1.52843,0.60046 1.21144,2.58158 1.21144,4.03813 h 0.40381 l 0.80763,-4.03813 v 4.03813 h 0.40381 v -4.03813 c 2.41763,0.26126 1.25828,2.26377 1.21144,4.03813 h 0.40381 l 0.40382,-2.82669 1.21144,0.40381 0.40381,-1.61525 c 1.58538,0.45914 3.02295,0.0984 3.23052,2.01906 h 1.61525 l 0.80763,-1.21144 v 2.01907 h 0.40381 v -2.01907 h 0.40381 v 3.63432 h 0.40382 l 0.40381,-3.63432 h 0.40381 v 2.42288 h 0.40382 v -2.01906 h 1.21145 v 2.01906 h 0.40381 l 0.4038,-0.80762 0.40383,2.42289 h 0.40381 v -3.63433 h 0.40381 l 0.40382,4.44194 h 0.40381 v -2.82669 l 2.01907,0.80764 c -0.35697,-1.23326 -0.63196,-1.84988 0.80762,-2.01908 v 2.82669 h 0.40382 v -2.42288 h 0.80762 v 1.61527 l 1.61527,0.4038 -1.21144,-1.21144 v -0.40381 l 2.42288,1.61525 -4.03815,0.80764 c -0.92352,2.351 -4.61477,2.82669 -6.86483,2.82669 -6.51432,0 -13.46961,0.005 -19.78688,-1.74973 -1.2817,-0.35616 -7.19031,-3.42717 -4.03814,-4.71129 l 0.80763,1.21144 -0.40382,-1.61526 2.82671,-0.40381 v 1.61525 h 0.40381 v -1.61525 h 3.23051 v 0.40381 l -1.21144,0.40382 1.61525,0.80762 0.40381,-2.01906 h 0.80763 m 6.46102,0 v 0.80762 h -0.80762 v -0.80762 h 0.80762 m 9.69153,0 -0.40381,0.40381 0.40381,-0.40381 m -58.14919,0.40381 0.40383,0.40381 -0.40383,-0.40381 m 53.70725,0 v 0.80763 h -0.80763 v -0.80763 h 0.80763 m 6.05721,0.13446 c 0.31214,0 0.0646,0.2011 -0.13446,0.13492 l 0.13446,-0.13492 m -71.07124,0.26933 v 0.40383 l 2.01907,0.40381 v -0.40381 l -2.01907,-0.40383 m 61.78351,0 0.80764,1.21144 -0.80764,-1.21144 m 54.11107,0 -0.80764,0.40383 v 0.40381 l 0.80764,-0.80764 m 7.26865,0 0.4038,2.42289 -4.84576,1.21144 c 0.13049,-1.10726 0.19989,-1.1646 1.21144,-0.80762 l 3.23052,-2.82671 m -117.50983,0.40383 v 0.40381 l 1.61525,0.4038 v -0.4038 l -1.61525,-0.40381 m 6.86482,0 0.40383,0.40381 -0.40383,-0.40381 m 2.01908,0 v 0.40381 h 1.21144 l -1.21144,-0.40381 m 29.07459,0 v 1.61525 h -0.40381 l -0.40382,-1.61525 h 0.80763 m 17.36399,0 0.40383,0.40381 -0.40383,-0.40381 m 10.09536,0 v 0.80761 h -0.80763 v -0.80761 h 0.80763 m 47.65003,0 -0.40381,0.40381 0.40381,-0.40381 m -101.76109,0.40381 1.21144,1.21144 -1.21144,-1.21144 m 7.67245,0 v 2.01907 h 0.40383 l -0.40383,-2.01907 m 22.20978,0 0.40381,0.4038 -0.40381,-0.4038 m 26.11343,0.26934 -0.13492,0.26894 0.13492,-0.26894 m 40.11203,-0.26934 -0.40381,0.80763 h 0.80763 l -0.40382,-0.80763 m 7.26865,0 -1.21144,0.80763 v -0.40383 l 1.21144,-0.4038 m 2.01907,0 0.80764,0.80763 v -0.80763 h -0.80764 m -124.509247,0.53828 0.269181,0.13492 -0.269181,-0.13492 m 15.883327,-0.13446 v 0.40382 l 1.61526,0.40381 v -0.40381 l -1.61526,-0.40382 m 2.01907,0 v 0.40382 l 1.21144,0.40381 -1.21144,-0.80763 m 44.0157,0 v 1.61527 h 0.40382 l -0.40382,-1.61527 m 1.34592,0.26935 0.13492,0.26893 -0.13492,-0.26893 M 66.5336,123.1908 v 0.40381 h 1.21144 L 66.5336,123.1908 m 50.20738,0.26933 0.13492,0.26895 -0.13492,-0.26895 m 2.01908,0 0.13492,0.26895 -0.13492,-0.26895 m 34.59352,-0.26933 1.21144,0.80762 -1.21144,-0.80762 m 19.38306,0 v 0.80762 h 0.80764 v -0.80762 h -0.80764 m 2.01908,0 v 0.40381 h 1.21144 l -1.21144,-0.40381 m 8.8839,0 -0.40381,0.40381 0.40381,-0.40381 m -102.97253,0.40381 0.40381,0.40381 -0.40381,-0.40381 m 29.4784,0 0.40382,0.40381 -0.40382,-0.40381 m 17.09466,0.26935 0.13492,0.26893 -0.13492,-0.26893 m 28.1325,-0.26935 1.61525,0.80763 v -0.40382 l -1.61525,-0.40381 m 15.34492,0.80763 1.21144,-0.80763 -1.21144,0.80763 m 11.71061,-0.80763 0.40381,2.01907 -5.65339,2.42289 v 0.4038 l 4.03813,-1.61525 -2.42288,2.01906 v 0.40383 l 3.23052,-2.82671 7.26865,-1.21144 v -0.40381 h -0.80764 v -0.40381 c 1.948,0.57907 3.2289,3.3242 3.63433,5.24958 h -2.01908 l 0.40383,-2.42289 h -0.40383 c -0.21078,2.0013 -1.19689,1.77758 -2.82669,2.01908 0.57745,-1.56762 1.07213,-2.71162 2.82669,-2.01908 -2.92765,-3.99251 -3.08917,3.09887 -3.63432,4.03814 l 3.23052,-1.21145 v 0.40383 l -6.86484,3.63434 v 0.40381 l 2.42288,-0.80764 v 0.40383 l -5.24958,2.82669 0.40381,-0.80763 h -0.40381 l -2.82669,2.8267 -2.42288,0.40381 v 0.40381 l 1.21144,-0.40381 v 0.40381 l -6.05721,3.23052 h -0.40382 l -0.80762,-0.80763 0.40381,1.21144 -4.44196,-4.44195 c 1.57771,3.155 4.61116,5.34085 6.73037,8.07627 5.13288,6.62619 5.88761,14.18639 14.67177,16.96018 l -0.40381,-0.80761 h 0.40381 l 5.6534,1.61525 v 0.4038 l -16.55637,-2.42288 v -1.21144 c -3.00357,0.23704 -5.4624,-0.0881 -8.07629,-1.81715 -0.8068,-0.53385 -1.86158,-1.97911 -2.42288,-1.00954 l -6.46102,-5.24958 c -0.22008,1.92538 -3.48411,3.93072 -5.24957,4.44195 l -2.01907,-2.01906 c 0.96471,1.92901 2.05742,2.59368 0.4038,4.44194 2.21573,-1.28292 4.20613,-4.5534 6.86484,-5.1151 2.54605,-0.53789 5.48379,2.96762 5.6534,5.1151 -4.23198,-0.48377 -8.76317,4.20087 -10.49916,7.67247 l 1.21144,-0.80763 -1.21144,2.01907 h -0.40381 l 0.40381,-1.21144 -6.05721,9.69153 -1.21144,0.80762 0.80763,-0.40381 -1.21144,4.03814 h 0.40381 c 0.27379,-3.46916 2.91271,-7.27027 4.84577,-10.09534 h 0.4038 l -1.21144,2.82669 h 0.40383 l 2.42288,-4.84577 -0.80763,0.40383 v -0.40383 l 3.63432,-4.03813 -1.21144,0.80763 c 2.42772,-3.6416 7.88729,3.08917 9.69153,4.84577 v 0.40381 l -1.21144,1.61525 c 2.45115,-2.45115 5.28956,-4.44195 8.8839,-4.44195 v 0.40381 h -1.21144 v 0.40381 c 2.86263,-0.30125 3.51844,-0.12149 6.05721,1.61527 v 0.40381 l -5.65339,4.84576 0.80762,-0.40381 v 0.40381 h -1.61525 l -10.09534,18.17163 h 0.40381 l 1.21144,-3.63433 h 0.40381 l -2.01906,6.86484 h -0.40382 l 0.40382,-3.23051 h -0.40382 l -0.40381,2.82669 h -0.80764 v -1.61525 h -0.40381 v 1.21144 c -1.92699,-0.15232 -4.61074,-0.65378 -4.84576,-2.82669 h -0.40381 c -0.12362,1.56436 0.31133,2.41076 1.61525,3.2305 -0.29075,-1.56881 4.23601,0.21645 4.44196,2.01907 h 0.40381 l 1.21144,-0.80763 c 0.13736,-5.21525 3.71347,-11.65043 6.73036,-15.74874 0.73494,-0.99863 2.41965,-4.28769 3.7688,-4.30748 2.18463,-0.0314 6.9981,4.63255 8.8839,5.92274 l -1.21144,2.01906 2.42288,-1.21144 c 1.4174,-4.48838 8.10858,-6.34148 11.71061,-3.2305 l -2.42288,0.40381 -3.02861,3.63432 -9.08581,14.13349 0.80762,-0.40382 -0.40381,1.21144 -0.80763,-0.80762 c -0.24995,1.18721 -0.95461,3.59637 -2.0865,4.24004 -1.09716,0.6243 -5.62674,-0.99903 -5.92234,-2.22098 -0.32507,-1.34388 1.11251,-3.25998 1.54782,-4.44194 h -0.40381 l -2.01907,5.24958 c 1.74609,0.36747 5.91547,3.20426 7.60503,1.95163 1.3245,-0.98167 2.2028,-3.74496 2.96156,-5.18215 2.19029,-4.1508 5.19305,-9.20412 9.22028,-11.44126 1.65928,-0.9219 2.39341,-2.31586 4.44196,-1.8846 v -0.80761 c 4.8074,1.01194 11.15091,5.75393 14.5373,9.2877 1.26797,1.3233 2.90989,4.11164 2.28841,6.05721 -1.08222,3.3872 -6.46748,5.46806 -9.55706,6.32656 -6.82324,1.8951 -14.90518,1.84139 -21.80595,0.40381 -2.71927,-0.56655 -5.73859,-3.1974 -8.48009,-2.69222 -0.67195,-1.00792 -1.55509,-1.77921 -1.21144,-0.40382 l -16.55637,-6.05721 v 0.40382 l 4.84576,2.01906 v 0.40383 c -3.47643,-0.2746 -7.69588,-3.25798 -10.49915,-5.24959 v -0.40381 l 1.21144,0.40381 v -0.40381 l -2.01907,-0.80764 0.40381,0.80764 h -0.40381 v -1.21144 l -2.01908,-2.01908 2.01908,0.80763 v -0.4038 l -7.26865,-5.6534 0.80763,1.21144 -1.61526,0.40381 v 0.40382 c 2.1495,0.45266 5.01133,1.82039 5.6534,4.03813 l -23.01739,-9.28772 v 0.40382 h 0.80763 v 0.40381 l -0.80763,-1.21144 -5.6534,-2.01907 0.40382,0.80763 -2.01907,-0.80763 v -1.21144 l 24.63264,8.48009 v -0.40381 l -7.67246,-2.82669 v -0.40383 h 1.21144 l -0.40381,-1.21144 2.82669,1.21144 v -0.40381 l -1.61525,-0.80763 v -0.40381 l 1.61525,0.40381 v -0.40381 l -6.0572,-4.03813 1.21144,2.01906 c -5.45432,-3.15782 -6.713,-10.78465 -6.86484,-16.55636 h 0.40382 l 2.82669,11.30678 h 0.40381 c -0.58915,-3.1982 -3.28622,-8.51966 -2.35544,-11.71061 0.61986,-2.12526 4.20129,-3.84469 5.98977,-4.91319 2.28842,-1.36651 4.97096,-4.16373 7.67247,-4.57643 4.51302,-0.68931 9.80339,4.31273 13.32586,6.25912 l 0.80761,-1.61526 -1.21144,0.40382 c -0.70021,-3.325 -2.4669,-7.31065 -5.24957,-9.28772 v -0.40381 c 2.4366,-1.47473 3.21395,0.18615 4.03813,2.42288 h 0.40383 l -1.61527,-4.03815 h 0.40382 l 1.61525,3.63433 1.21145,-0.40381 -1.21145,-0.80763 -0.80763,-2.01906 0.80763,0.40381 v -0.40381 l -1.21144,-0.40383 v -0.4038 l 5.6534,-0.80764 -0.40382,-0.80761 1.61526,2.01905 h 0.40381 c -1.08586,-3.43887 -5.0299,-7.30418 -3.23051,-10.90297 l -0.80762,0.80763 h -0.40383 l 0.80764,-14.53731 c 1.6306,0.12881 3.35447,0.46922 4.03813,2.01907 l -1.21144,-0.80763 1.61526,1.21144 6.46102,9.69155 -2.82669,-4.84578 4.03813,4.84578 h -1.21144 v 0.40381 l 1.61525,1.61526 -0.40381,-1.61526 2.42289,2.01907 c -1.51269,-2.73705 -0.80965,-3.83502 2.01907,-5.24957 l -0.80763,-1.21144 h -0.40381 l -0.40383,1.61525 h -0.4038 v -1.61525 h -0.40381 l -1.21144,3.2305 h -0.40383 l -7.26865,-10.49917 0.80763,1.21144 h 0.40381 v -0.80763 h 0.40383 v 2.42288 h 0.40381 l 0.80763,-2.42288 -0.40382,1.21144 0.80763,-1.61525 1.61525,0.40381 v 3.23052 h 0.40382 v -3.63433 l 0.80762,1.21144 h 0.40382 v -0.80763 h 0.40381 l 0.80764,4.03813 h 0.4038 v -1.61525 h 0.40381 v 1.61525 l 0.80764,-0.4038 v 2.42288 h 0.4038 v -1.61525 c 2.17373,1.08705 3.03063,1.34308 1.61527,3.23051 l 8.48009,-4.84578 v -0.40381 l -6.46103,3.23052 c -1.57204,-2.21291 -4.76782,-3.09525 -4.84577,-6.05721 l 16.55638,-2.01907 m -114.27931,0.40381 v 0.40382 l 1.61525,0.40381 -1.61525,-0.80763 m 13.32585,0 0.40381,0.40382 -0.40381,-0.40382 m 2.01906,0 0.80763,0.80763 v -0.80763 h -0.80763 m 2.01907,0 0.40381,0.40382 -0.40381,-0.40382 m 23.4212,0 -0.40381,0.40382 0.40381,-0.40382 m 48.86149,0.80763 1.21144,-0.80763 -1.21144,0.80763 m 2.42288,0 1.21144,-0.80763 -1.21144,0.80763 m 4.84577,-0.80763 v 0.40382 h 1.61525 l -1.61525,-0.40382 m 2.42288,0 v 0.40382 h 2.01906 l -2.01906,-0.40382 m -59.36064,0.40382 c 3.79545,3.4958 10.67158,5.24958 15.74874,5.24958 v 1.21144 c 1.78364,-1.03579 11.14284,-1.6302 10.90298,0 l 0.80761,-1.21144 h 2.01908 l -0.80763,0.80763 v 0.40381 l 2.42288,0.80763 -0.80762,-2.01907 2.01906,3.23053 h -0.40381 l -0.40381,-1.21146 h -0.40382 l 2.01907,5.24959 -1.61525,0.80763 v 0.40381 l 1.61525,-0.40381 v 0.40381 c -3.73527,1.86764 -8.50916,2.00494 -12.51822,1.61525 -1.49331,-0.14545 -4.20774,0.35415 -4.84577,-1.21144 l -1.21144,0.40382 -0.80763,-1.21144 0.40381,1.21144 c -4.73875,-0.87304 -10.48462,-2.30699 -14.13348,-5.72084 -1.88096,-1.75943 -1.72872,-7.16287 0,-8.81647 m 8.61455,0.26933 0.13492,0.26895 -0.13492,-0.26895 m 16.4219,-0.26933 0.40382,0.40381 -0.40382,-0.40381 m -56.53392,0.40381 0.40381,0.40381 -0.40381,-0.40381 m 12.92202,0 3.23052,10.90299 h 0.40381 l -3.63433,-10.90299 m 48.86149,0 0.40381,0.40381 -0.40381,-0.40381 m -67.84072,0.40381 1.21144,0.80763 -1.21144,-0.80763 m 6.86482,0 0.40383,0.40382 -0.40383,-0.40382 m 5.24959,0 0.80762,0.80763 -0.80762,-0.80763 m 38.76613,0 0.40381,0.40382 -0.40381,-0.40382 m 24.22883,0 1.61525,8.4801 c 1.5995,-0.22855 1.41739,1.08707 1.61525,2.42289 -6.5119,3.94123 -8.55439,-3.20143 -10.49915,-8.48011 l 1.61525,0.80763 -0.40381,-1.21144 h 2.82669 c 0.61663,-1.43879 1.67583,-1.8963 3.23052,-2.01907 m 6.86483,0.40382 0.40382,0.40381 -0.40382,-0.40381 m 32.30511,0 v 0.80762 h 0.80763 v -0.80762 h -0.80763 m -112.26025,0.40381 v 0.40381 h 1.61526 l -1.61526,-0.40381 m 12.11441,0 0.40382,0.40381 -0.40382,-0.40381 m 23.42121,0 1.21144,0.80763 -1.21144,-0.80763 m 15.07559,0.26935 0.13491,0.26894 -0.13491,-0.26894 m 3.90365,-0.26935 0.40383,0.40381 -0.40383,-0.40381 m 7.67248,0 0.40381,0.40381 -0.40381,-0.40381 m 1.3459,0.26935 0.13492,0.26894 -0.13492,-0.26894 m 8.34563,-0.26935 -1.21144,0.80763 v 0.40381 l 1.21144,-1.21144 m -75.10937,0.40381 v 0.40382 l 6.86482,3.2305 v -0.4038 l -6.86482,-3.23052 m 8.48009,0 1.21144,0.80763 -1.21144,-0.80763 m 74.70555,0 v 2.01907 h 0.40382 l -0.40382,-2.01907 m 8.48009,0 v 2.42288 h 0.40382 l -0.40382,-2.42288 m -81.16658,0.40382 1.21144,0.80762 v -0.40381 l -1.21144,-0.40381 m 77.53225,0 -0.40381,0.40381 0.40381,-0.40381 m -79.95514,0.40381 0.40383,2.01908 2.42288,0.80761 -2.82671,-2.82669 m 33.38208,0.13446 0.26895,0.13492 -0.26895,-0.13492 m 30.0167,-0.13446 v 0.40381 h 1.21145 l -1.21145,-0.40381 m 4.03814,0.40381 0.80763,1.21144 -0.80763,-1.21144 m 12.92205,0 -0.40383,0.40383 0.40383,-0.40383 m -88.03142,0.40383 v 0.4038 l 1.61525,0.40381 v -0.40381 l -1.61525,-0.4038 m 43.20808,0 v 0.4038 h 1.61525 l -1.61525,-0.4038 m -32.70892,0.4038 1.21144,0.80764 v -0.40383 l -1.21144,-0.40381 m 2.01906,0 v 0.80764 h 0.80763 l -0.80763,-0.80764 m 6.86484,0 0.4038,1.21145 h 0.40383 l -0.80763,-1.21145 m -5.24958,0.40381 1.21144,0.80764 v -0.40381 l -1.21144,-0.40383 m 32.70892,0 1.21144,0.80764 -1.21144,-0.80764 m 10.90298,0 v 0.40383 h -3.63433 l 3.63433,-0.40383 m 0.80761,0 -0.4038,0.40383 0.4038,-0.40383 m 1.21145,0.13446 c 0.31215,0 0.0646,0.2011 -0.13446,0.13492 l 0.13446,-0.13492 m 2.01907,0.67316 -1.21144,-0.40381 1.21144,0.40381 m 25.17093,-0.53828 0.13491,0.26893 -0.13491,-0.26893 M 72.187,129.24798 v 0.80761 h 0.80763 v -0.80761 H 72.187 m 68.24453,0 v 0.80761 h 0.80763 l -0.80763,-0.80761 m -58.95681,0.4038 0.80762,0.80764 -0.80762,-0.80764 m 4.44194,0 v 0.40381 h 1.21144 l -1.21144,-0.40381 m 34.32419,0 v 0.40381 l 1.21144,0.40383 -1.21144,-0.80764 m 22.61356,5.2496 h 0.40383 v -1.21145 c 2.76288,1.09071 2.85051,-1.57044 3.2305,-3.63434 l -1.21144,0.40383 c -0.53626,-1.31645 -2.20119,-0.9312 -2.69222,0.40381 -0.47449,1.29059 0.16758,2.7512 0.26933,4.03815 m 9.28773,-5.2496 v 0.80764 h 0.80763 v -0.80764 h -0.80763 m 24.63264,0.80764 1.21144,-0.80764 -1.21144,0.80764 M 70.97556,130.05559 v 0.40383 l 1.61525,0.40381 v -0.40381 l -1.61525,-0.40383 m 12.51822,0 1.21144,0.80764 v -0.40381 l -1.21144,-0.40383 m 85.20473,0 -0.40382,0.40383 0.40382,-0.40383 m -42.40045,0.40383 0.4038,0.80762 h 0.40381 l 0.40383,-0.80762 h -1.21144 m 3.36497,0.26933 0.13492,0.26895 -0.13492,-0.26895 m 2.69223,0.53829 1.21144,-0.40381 -1.21144,0.40381 m 12.11442,-0.80762 c 1.23082,0.79631 1.37134,1.48805 0.80762,2.8267 -1.10362,-0.71395 -1.60718,-1.72753 -0.80762,-2.8267 m 1.61525,0 -0.40381,0.40381 0.40381,-0.40381 m -73.0903,0.40381 v 0.40381 l 1.61525,0.40382 v -0.40382 l -1.61525,-0.40381 m 12.92203,0 v 0.40381 h 1.21144 l -1.21144,-0.40381 m 3.63432,0 0.80764,0.80763 v -0.80763 h -0.80764 m 80.35897,0 -0.40382,0.40381 0.40382,-0.40381 m 4.84577,0 -0.80763,1.21144 0.80763,-1.21144 m -99.74203,0.40381 v 0.40382 l 0.80763,0.40381 c -0.9425,0.40987 -0.36747,0.57383 0.40381,0.80765 l 0.80764,-0.80765 v -0.40381 l -2.01908,-0.40382 m 66.22547,0 v 0.80763 h 0.80764 l -0.80764,-0.80763 m 10.90298,0 v 1.21144 h 0.40381 l -0.40381,-1.21144 m 5.6534,0 v 0.80763 h 0.80761 l -0.80761,-0.80763 m 2.42288,0 -0.40382,0.40382 0.40382,-0.40382 m 0.80762,0 0.40382,0.40382 -0.40382,-0.40382 m 4.57643,0.26934 0.13492,0.26894 -0.13492,-0.26894 m 19.6524,-0.26934 -1.21144,0.80763 v 0.40381 l 1.21144,-1.21144 m -100.68411,0.53828 0.26893,0.13492 -0.26893,-0.13492 m 23.15185,-0.13446 0.40382,0.40381 -0.40382,-0.40381 m 35.53563,0 1.21144,2.01907 c -1.13432,-0.33717 -1.93751,-0.95421 -1.21144,-2.01907 m 45.22714,0 -0.4038,0.40381 0.4038,-0.40381 m -16.55637,1.21146 1.21144,-0.80765 -1.21144,0.80765 M 77.8404,132.47848 v 0.80764 h 0.80762 v -0.80764 H 77.8404 m 9.2877,0 0.40383,0.40384 -0.40383,-0.40384 m 101.76109,0 -0.40381,0.40384 0.40381,-0.40384 m -79.95514,0.40384 1.21144,0.80761 v -0.40381 l -1.21144,-0.4038 m 50.07293,0 0.80762,1.21144 -0.80762,-1.21144 m 5.65338,0 0.40383,0.4038 -0.40383,-0.4038 m 17.76782,0 -0.40381,0.80761 0.40381,-0.80761 m 11.30678,0 0.80763,0.80761 v -0.80761 h -0.80763 m -41.99663,0.4038 v 1.21145 l 0.80762,-1.21145 h -0.80762 m 18.97924,0 -1.21144,0.80764 v 0.40381 l 1.21144,-1.21145 m 16.55637,0 c 1.32249,1.93306 0.63844,6.47395 -1.68269,7.87437 -0.95421,0.57584 -3.22284,-0.20191 -4.37452,-0.20191 0.67922,-2.34697 3.76597,-6.76791 6.05721,-7.67246 m -96.78085,0.67316 0.13492,0.26894 -0.13492,-0.26894 m 74.16727,-0.26935 v 1.21145 l 0.80763,-0.40381 v -0.40381 l -0.80763,-0.40383 m 14.5373,0.80764 v 0.40381 l 2.01907,-0.80762 -2.01907,0.40381 m 9.28772,-0.80764 0.40381,0.80764 -0.40381,-0.80764 m -79.95514,0.40383 v 2.01906 h -0.40381 l 0.40381,-2.01906 m 2.82669,0 v 0.40381 l 3.23052,1.61525 v -0.40381 l -3.23052,-1.61525 m -29.88221,0.40381 v 0.40381 h 1.21144 l -1.21144,-0.40381 m 78.33988,0 0.80763,1.21144 -0.80763,-1.21144 m 20.5945,1.61525 2.42289,-1.21144 -2.42289,1.21144 m 15.21046,-1.48078 0.26895,0.13492 -0.26895,-0.13492 m -109.29908,0.26934 v 0.40382 l 2.42289,0.40381 v -0.40381 l -2.42289,-0.40382 m 23.82501,0 v 2.01907 h 0.40382 v -1.21144 c 1.43031,0.15465 1.5785,0.62874 1.61526,2.01907 h 0.4038 l 0.40383,-1.21144 0.40381,4.44194 h 0.40381 v -3.63432 c 2.1386,0.46237 1.61526,2.18464 1.61526,4.03815 h 0.40381 l 0.40381,-3.23052 h 0.40382 v 3.23052 h 0.40381 l 0.40381,-2.82671 h 0.40382 v 2.42288 h 0.40381 v -2.01906 h 0.80764 v 1.61525 h 0.4038 l 0.80764,-1.21144 v 2.82669 h 0.40381 l 0.40381,-2.82669 h 0.80763 l 0.40381,1.21144 0.80763,-0.80763 c 1.31846,1.49412 5.26937,-0.82216 5.6534,2.82671 l 0.80762,-0.40383 v 1.21145 c 2.74957,-0.43409 3.30441,4.04016 0.80763,3.23051 0.53222,1.50018 1.63424,0.43936 2.82669,0 l -0.80762,-2.42288 h 0.40381 l 0.40381,2.01907 2.82671,-1.61526 c -2.40108,-0.75835 -5.10057,-1.8741 -6.46103,-4.03814 l 11.7106,-1.61525 0.80764,1.61525 0.80761,-1.21144 7.26865,-2.01907 0.40383,2.01907 -8.88392,2.01908 0.40383,1.21144 1.21144,-0.40383 -0.40383,-0.80761 c 1.03903,-0.30085 3.27454,0.40906 2.42289,-0.80764 5.03959,-1.45898 7.63854,0.51042 8.07628,6.05721 -3.36095,-0.53061 -5.91265,1.73196 -8.8839,2.82669 v 0.40383 l 7.67246,-2.82671 v 0.40382 l -8.07629,3.23051 0.40383,-0.80762 h -0.40383 l -7.67245,4.84576 2.82669,-1.21144 v 0.40381 l -3.2305,1.61525 0.40381,-0.80762 h -0.40381 c -3.61575,2.94945 -9.12621,7.51094 -13.72968,8.4801 l -3.63433,-7.26865 c 1.4711,-0.73575 3.41547,-3.23739 4.84577,-2.01908 l 2.42288,-3.23051 -6.86482,1.21144 -0.40383,-1.61525 h -0.40381 l -0.40381,2.01907 -1.21144,-0.80763 -1.61526,1.21144 -1.21144,-3.23052 h -1.21145 l 2.42289,4.03815 c -2.24601,-1.30028 -3.91335,-4.35433 -4.44195,-6.86484 h 0.40381 l 1.21145,2.82669 h 0.4038 l 0.40383,-2.42288 h -0.40383 l -0.80761,0.80763 -0.40383,-3.63432 h -0.40381 l -0.40381,0.80763 -0.40382,-5.6534 -0.80762,0.40381 -0.40382,-3.63432 1.21144,-1.21144 m 79.55134,0 c 1.17954,1.44606 6.26112,5.95585 5.92273,7.67247 -0.55524,2.81418 -7.32477,-0.27823 -9.15325,-0.80763 l 2.42288,-5.6534 1.21144,0.80763 -0.4038,-2.01907 m -22.61359,1.21144 1.21145,-0.80762 -1.21145,0.80762 m -75.10937,-0.40381 0.80763,0.80763 -0.80763,-0.80763 m 55.59185,0.13446 0.26894,0.13492 -0.26894,-0.13492 m 29.61288,-0.13446 v 0.80763 l 0.80762,-0.80763 h -0.80762 m -60.57208,0.40381 1.61525,1.21144 v -0.40381 l -1.61525,-0.80763 m 35.13181,0 v 0.80763 h 0.80762 v -0.80763 h -0.80762 m 31.09366,0 -2.8267,4.84576 -3.23051,-0.80761 6.05721,-4.03815 m -98.53058,0.40382 v 0.40381 l 1.61525,0.40381 v -0.40381 l -1.61525,-0.40381 m 7.26865,0 0.80763,1.21144 -0.80763,-1.21144 m 16.96018,0 1.21144,7.67246 h -0.40381 l -0.80763,-7.67246 m 37.42021,0.13446 0.26895,0.13492 -0.26895,-0.13492 m 15.47941,-0.13446 0.80762,1.21144 -0.80762,-1.21144 m 30.68985,0 0.40381,0.40381 -0.40381,-0.40381 m -47.78451,0.53829 0.26894,0.13491 -0.26894,-0.13491 m 31.22814,-0.13447 -0.80762,1.21145 0.80762,-1.21145 m 7.67247,0 -0.40382,0.40381 0.40382,-0.40381 m 6.86482,0 4.84577,5.24958 -4.84577,-5.24958 m -70.66742,0.40381 v 0.40383 h 1.61526 l -1.61526,-0.40383 m 28.26697,0 -0.40381,0.40383 0.40381,-0.40383 m 45.22716,0 0.80762,1.21145 -0.80762,-1.21145 m -82.37803,0.40383 v 1.61525 h 0.40381 l -0.40381,-1.61525 m 35.93943,0 -0.40381,0.40381 0.40381,-0.40381 m 31.9013,0 -0.40382,0.40381 0.40382,-0.40381 m -91.26194,0.40381 v 0.80763 h 0.80763 l -0.80763,-0.80763 m 19.92135,0.26934 0.13492,0.26894 -0.13492,-0.26894 m 7.538,-0.26934 v 3.23051 h 0.40381 l -0.40381,-3.23051 m 10.49916,0 v 0.40381 h 1.61525 l -1.61525,-0.40381 m 10.49915,0.80763 1.21145,-0.80763 -1.21145,0.80763 m 2.69224,-0.67316 0.26893,0.13492 -0.26893,-0.13492 m 7.40312,-0.13446 v 0.40381 h -2.82671 l 2.82671,-0.40381 m 16.96018,0 0.80762,1.21144 -0.80762,-1.21144 m 37.15087,0 0.40382,0.40381 -0.40382,-0.40381 m -107.01067,0.40381 0.40381,0.40382 -0.40381,-0.40382 m 35.13181,0 v 0.40382 h 1.21144 l -1.21144,-0.40382 m 2.42288,0 v 0.40382 h 2.01907 l -2.01907,-0.40382 m 2.82669,0 v 0.40382 h 2.01908 l -2.01908,-0.40382 m 60.9759,0 0.80762,1.21144 -0.80762,-1.21144 m -21.40214,1.21144 1.21145,-0.80762 -1.21145,0.80762 m -86.01235,-0.40381 0.40381,0.40381 -0.40381,-0.40381 m 79.95515,0 2.01907,2.8267 -2.01907,-2.8267 m 34.72799,0.13446 c 0.31215,0 0.0646,0.2011 -0.13446,0.13492 l 0.13446,-0.13492 m 4.84577,2.28841 v 0.40381 l -8.88392,6.46103 c 0.29641,1.40769 -0.25318,1.76668 -1.61525,2.01906 l 0.40381,1.61527 h 0.40383 l 3.2305,-4.03815 c -2.4774,4.27921 -5.24393,7.33246 -5.65339,12.51824 h -0.40382 l 2.42288,-8.48009 -1.61525,0.40381 0.80763,0.80763 -1.61526,1.21144 -0.80762,2.01906 v 5.24959 c -3.3767,-0.26653 -5.60413,-0.75513 -3.63432,-4.03815 h -0.80764 l 0.80764,-0.80762 0.80761,-2.42288 -0.80761,0.40381 v -0.40381 l 0.40381,-1.21144 0.80763,0.40381 v -2.01908 l 1.21144,-0.40381 2.01906,-6.0572 h -0.40381 l -5.11511,10.90297 -1.34591,5.24957 7.26865,2.01908 c 0.0997,-3.78455 1.31602,-7.65913 3.16308,-10.90297 0.60006,-1.05356 1.58617,-3.30158 2.89413,-3.5669 1.93063,-0.39169 5.73455,2.51739 7.26865,3.5669 l -2.01907,4.44195 h 0.4038 l 0.80764,-2.01907 0.80763,0.40381 0.40381,-0.40381 v -2.01908 l 1.21144,0.40383 0.40381,-0.40383 c -1.05233,-5.71234 6.55189,-3.18527 8.88391,-2.01906 v 0.80762 l -3.63432,1.21144 0.40381,-2.82669 h -0.40381 c -0.0368,1.39033 -0.18495,1.86441 -1.61527,2.01908 l -0.4038,-1.61527 2.01907,-0.40381 v -0.40381 h -2.82671 c 0.41392,1.74811 0.0864,4.04015 2.82671,3.63433 -0.76766,1.38952 -1.62415,3.03789 -3.23052,2.82669 l -0.4038,2.42288 -1.21145,0.40381 0.40381,1.21144 h -1.21144 l -0.40381,1.61527 h 0.80762 l -2.01906,6.46102 c -1.14159,-0.24028 -4.00623,-0.64409 -4.64386,-1.6827 -1.28252,-2.08812 1.8951,-7.64379 2.62479,-9.62409 h -0.40381 c -0.87749,2.38209 -3.60728,6.6286 -2.75927,9.28771 0.47408,1.48766 5.05656,3.48169 6.32615,2.35546 2.5949,-2.30094 0.98773,-13.14213 6.93227,-12.04699 l -0.40381,-0.80762 1.21144,1.61525 1.21144,-0.40381 0.80763,1.21144 -3.23051,6.46102 h 0.40381 c 0.65782,-3.12511 3.51721,-8.17926 6.86484,-8.8839 -0.44299,1.40285 -0.85246,2.27751 0.40381,3.2305 l -0.40381,-2.01906 h 0.40381 l -0.40381,3.63433 1.21144,-1.21144 h 0.40381 l -3.90366,6.0572 -2.55736,6.46102 c -3.61818,-1.04749 -2.96843,-1.12098 -3.23051,-4.44196 l 0.80763,0.40383 v -0.40383 -2.82669 h -0.40381 c -0.29278,1.58821 -2.16484,5.39132 -0.74019,6.73037 1.01396,0.953 3.48047,1.13471 4.77832,1.74972 0.6772,-3.67632 1.80142,-8.34642 4.91321,-10.83553 4.67616,-3.74095 14.17023,-2.58118 16.35446,3.97069 1.31159,3.93518 -3.37023,7.78029 -6.73037,8.48009 -8.98889,1.87289 -16.78897,-0.42562 -25.44027,-2.01906 v -0.40382 h 1.21144 v -0.40381 c -6.90077,-1.27121 -12.64624,-6.47434 -19.38306,-8.34561 -4.45124,-1.23649 -8.57176,-0.90536 -10.49917,-5.78788 l -0.80762,0.40382 -1.61526,-3.63432 h 0.40382 l 0.40381,1.61525 h 0.40381 c -0.75756,-3.59879 -3.91376,-9.83771 -6.86483,-12.11442 4.92814,-7.84045 17.71895,1.17147 24.63264,0.80764 l -0.40381,-1.21144 4.44195,-3.63433 2.42288,-0.80763 4.03815,2.42288 m -95.70389,-2.01907 0.40381,0.40382 -0.40381,-0.40382 m 10.49916,0 v 3.63432 h 0.40382 l -0.40382,-3.63432 m -31.90129,0.40382 v 0.40381 h 1.21144 l -1.21144,-0.40381 m 17.76781,0 0.80762,1.21144 -0.80762,-1.21144 m 56.93775,0 1.21145,0.80762 -1.21145,-0.80762 m 31.49748,0 1.21145,0.80762 -1.21145,-0.80762 m -109.02974,0.40381 -0.40382,0.40381 0.40382,-0.40381 m 8.07627,0 0.40382,0.40381 -0.40382,-0.40381 m 24.22883,0 v 2.42288 h 0.40383 l -0.40383,-2.42288 m 52.09199,0 v 0.80763 l 0.80763,-0.80763 h -0.80763 m 30.28604,4.84577 c 0.42643,-0.71718 0.96633,-1.10121 1.48079,-1.74973 4.45406,-5.61625 -9.28045,-0.508 -1.48079,1.74973 m -90.31983,-4.17261 0.13491,0.26893 -0.13491,-0.26893 m 11.7106,0 0.13492,0.26893 -0.13492,-0.26893 m 0.67316,-0.26935 v 1.21144 h 0.40381 l -0.40381,-1.21144 m 1.21144,0 0.40381,0.40382 -0.40381,-0.40382 m 25.03647,0.2019 c -2.28802,-0.13446 -3.51238,3.83625 -0.80764,3.83625 1.97102,0 3.01286,-3.70661 0.80764,-3.83625 m 49.6691,-0.2019 -0.40382,0.80763 0.40382,-0.80763 m -104.99161,0.40382 0.40381,0.40381 -0.40381,-0.40381 m 19.38307,0 0.40381,0.40381 -0.40381,-0.40381 m 12.92205,0 v 1.21144 h 0.4038 l -0.4038,-1.21144 m 43.61189,0 -0.40382,0.80762 0.40382,-0.80762 m 3.2305,0 -2.82669,2.01906 v -0.40381 l 2.82669,-1.61525 m 29.47842,0 c -0.18777,1.78566 -1.53167,2.78066 -3.23051,2.42289 l 3.23051,-2.42289 m 2.01906,0 0.40383,0.40381 -0.40383,-0.40381 m -114.00996,0.53829 0.26893,0.13492 -0.26893,-0.13492 m 25.97855,-0.13446 0.40381,0.40381 -0.40381,-0.40381 m 20.19069,2.01907 v 0.40381 l 3.63432,-0.80763 1.21144,-1.21144 -4.84576,1.61526 m 13.32585,-2.01907 c -0.10088,3.84268 -3.84268,0.10103 0,0 m -57.74537,0.40381 v 0.80763 h 0.80762 l -0.80762,-0.80763 m 23.01739,0 0.40381,0.40382 -0.40381,-0.40382 m 15.34492,0 -0.40381,0.40382 0.40381,-0.40382 m -20.19069,0.40382 0.40381,0.40381 -0.40381,-0.40381 m 15.07559,0.26933 0.13492,0.26895 -0.13492,-0.26895 m 14.80663,-0.26933 -0.40381,0.40381 0.40381,-0.40381 m 25.44027,0 0.80764,1.61525 h 0.4038 l -1.21144,-1.61525 m 31.22815,0.26933 0.13492,0.26895 -0.13492,-0.26895 m 7.53798,0.53829 v 0.40382 l -2.42288,1.61525 2.42288,-2.01907 m -107.01066,0.40382 -0.40381,0.40381 0.40381,-0.40381 m 50.47673,0 -0.40382,0.40381 0.40382,-0.40381 m 21.80595,0 -0.40382,0.40381 0.40382,-0.40381 m 35.93942,0 1.21145,0.80762 -1.21145,-0.80762 m -93.6848,0.40381 0.4038,0.40381 -0.4038,-0.40381 m 23.82502,0 0.40381,0.40381 -0.40381,-0.40381 m 1.21144,0.40381 -0.80763,0.40382 v 0.40381 l 0.80763,-0.80763 m 33.51654,0 c 2.09297,0.89687 3.58062,3.8851 4.03815,6.05721 h -0.40383 l -3.63432,-6.05721 m -60.57208,0.40382 -0.40381,0.40381 0.40381,-0.40381 m 23.82502,0 -0.40381,0.40381 0.40381,-0.40381 m 33.92037,0 0.40381,1.61525 h 0.40382 l -0.80763,-1.61525 m -17.76782,1.21144 1.21144,-0.40382 -1.21144,0.40382 m 2.42289,-0.80763 0.40382,0.40381 -0.40382,-0.40381 m 55.3225,0 1.21144,1.21144 -1.21144,-1.21144 m -97.31914,0.40381 -0.40382,0.40382 0.40382,-0.40382 m 83.99328,0 -0.40381,0.80763 h 0.80762 l -0.40381,-0.80763 m -95.70388,0.40382 c 0.50962,1.71418 2.00089,2.31103 3.63432,2.8267 v -0.40381 l -3.63432,-2.42289 m 35.80496,0.13446 0.26894,0.13492 -0.26894,-0.13492 m 64.34088,-0.13446 -0.40382,0.80762 h 0.80763 l -0.40381,-0.80762 m 12.51822,0 0.40381,0.40381 -0.40381,-0.40381 m -97.99229,0.67316 0.13492,0.26894 -0.13492,-0.26894 m 55.99565,-0.26935 0.80763,1.21144 -0.80763,-1.21144 m 40.65073,0.13446 0.26895,0.13492 -0.26895,-0.13492 m -81.70527,0.53868 0.13492,0.26894 -0.13492,-0.26894 m 24.49818,-0.26934 -0.40382,0.40382 0.40382,-0.40382 m -20.32516,0.53828 0.26894,0.13492 -0.26894,-0.13492 m 12.65269,-0.13446 v 0.40381 h 1.21144 l -1.21144,-0.40381 m 48.05385,0 -0.40381,1.21144 0.40381,-1.21144 m 9.28772,0 0.80762,1.21144 -0.80762,-1.21144 m 10.49915,0 0.40383,0.80762 -0.40383,-0.80762 m -83.18564,2.01906 v -0.40381 l -0.80763,-0.40381 1.21144,-0.40382 c -1.03457,-0.56413 -1.9585,0.69335 -0.40381,1.21144 m 13.72967,-1.21144 -0.80764,0.40382 v 0.40381 l 0.80764,-0.80763 m -30.28604,0.40382 0.40381,0.40381 -0.40381,-0.40381 m 14.5373,0.40381 -0.80764,0.40381 v 0.40382 l 0.80764,-0.80763 m 43.20808,0 0.80762,1.61525 h 0.40382 l -1.21144,-1.61525 m 20.99832,0 -0.40381,1.21144 0.40381,-1.21144 m 12.6527,0.26935 0.13492,0.26894 -0.13492,-0.26894 m -87.22379,0.40381 0.13491,0.26893 -0.13491,-0.26893 m 3.09604,-0.26935 0.40381,0.40382 -0.40381,-0.40382 m 33.51655,0 0.40381,1.21144 h 0.40381 l -0.80762,-1.21144 m 1.61525,0 1.21144,1.61526 -1.21144,-1.61526 m -40.38138,0.40382 0.40381,0.40381 -0.40381,-0.40381 m 24.22883,0.80762 1.21144,-0.80762 -1.21144,0.80762 m -33.92036,-0.40381 0.40381,0.80763 -0.40381,-0.80763 m 8.48009,0 0.40381,0.40381 -0.40381,-0.40381 m 11.71059,0 v 0.40381 l 1.61527,0.40382 v -0.40382 -0.40381 h -1.61527 m 85.60854,0 0.40381,0.40381 -0.40381,-0.40381 m -96.10769,0.40381 v 1.21144 h 0.40381 l -0.40381,-1.21144 m 2.15354,0.26935 0.13491,0.26894 -0.13491,-0.26894 m 55.18802,-0.26935 0.80764,1.21144 -0.80764,-1.21144 m 37.9585,0 -1.21144,1.61527 c 1.02649,-0.30529 1.72712,-0.66953 1.21144,-1.61527 m -67.4369,0.40382 v 0.40381 l -3.63433,2.01908 3.63433,-2.42289 m 31.90129,0 -0.40381,0.40381 0.40381,-0.40381 m 41.99664,0 -0.80763,0.40381 v 0.40381 l 0.80763,-0.80762 m -60.16827,0.40381 0.80764,2.01908 h 0.4038 l -1.21144,-2.01908 m -34.32417,0.40381 -0.40382,0.40383 0.40382,-0.40383 m 2.01906,0.80764 1.21144,-0.80764 -1.21144,0.80764 m 12.78759,-0.67316 0.26893,0.13492 -0.26893,-0.13492 m 7.80692,5.11511 -5.24958,-2.01907 v -1.21144 l 0.80763,0.40381 0.40381,-1.21145 h 0.40381 v 1.61527 c 2.10186,-4.99195 3.63433,-1.17147 3.63433,2.42288 m 10.36469,-5.11511 0.26895,0.13492 -0.26895,-0.13492 m 57.07223,-0.13446 -0.40381,0.40382 0.40381,-0.40382 m -107.8183,0.40382 0.80763,1.61525 1.21144,-0.80763 -2.01907,-0.80762 m 8.07628,0 -0.40383,0.40381 0.40383,-0.40381 m 6.46101,0 -0.4038,0.40381 0.4038,-0.40381 m -0.80763,0.40381 v 0.40381 h -1.21144 l 1.21144,-0.40381 m 32.30512,0 0.4038,1.21144 h 0.40383 l -0.80763,-1.21144 m -31.49749,1.21144 1.21145,-0.80763 -2.8267,2.82671 -1.21144,-2.01908 h 2.82669 m 2.01908,-0.67316 c 0.31214,0 0.0646,0.2011 -0.13446,0.13492 l 0.13446,-0.13492 m 12.92203,0.26935 v 0.40381 l 1.61527,-0.40381 h -1.61527 m 15.74874,-0.40382 0.40383,0.40382 -0.40383,-0.40382 m 6.05721,0 0.80763,0.80763 v -0.80763 h -0.80763 m 60.57208,0 -4.84577,5.6534 h -0.40381 c 0.85406,-2.16364 3.15702,-4.60711 5.24958,-5.6534 m -73.76346,0.67316 0.13492,0.26895 -0.13492,-0.26895 m 6.32656,-0.26934 1.21144,2.42289 0.80761,-0.80764 0.40383,1.21145 h 0.40381 l 0.40381,-1.61526 h -0.40381 l -0.40381,0.80762 -2.42288,-2.01906 m -27.05554,0.40381 v 0.80763 l 0.80763,-0.80763 h -0.80763 m 21.80594,0 v 2.42289 h 0.40383 l -0.40383,-2.42289 m 2.01908,0 2.42288,5.24958 -1.61525,-2.01906 -1.21144,0.40381 0.40381,-3.63433 m 28.26696,0 v 0.80763 h 0.80764 l -0.80764,-0.80763 m -67.84072,0.40381 2.01907,2.01908 -2.01907,-2.01908 m 2.01907,0 1.61525,1.61527 -1.61525,-1.61527 m 7.26865,0 1.61525,2.01908 -1.61525,-2.01908 m 23.82502,0 -0.40382,0.40382 0.40382,-0.40382 m 11.17231,0.26935 -0.13492,0.26894 0.13492,-0.26894 m 61.918,-0.26935 -0.40381,1.21144 0.40381,-1.21144 m -97.72296,0.40382 -0.40381,0.40381 0.40381,-0.40381 m 16.96018,1.21145 1.21144,-0.80764 -1.21144,0.80764 m 10.90297,-0.80764 0.40383,0.40381 -0.40383,-0.40381 m -22.61356,0.40381 -0.40383,0.80764 h 0.80764 l -0.40381,-0.80764 m 20.19068,0 -0.40381,0.40383 0.40381,-0.40383 m 83.58947,0 -0.40381,0.40383 0.40381,-0.40383 m -65.41785,0.40383 -2.01906,0.80761 0.80762,0.80764 c -2.82225,1.67784 -0.40381,2.43176 -0.40381,4.44195 2.70031,-0.80279 2.67891,-4.37291 1.61525,-6.0572 m 68.64836,1.61525 -2.01907,-0.40381 h -0.40381 l -0.40381,1.61525 c -3.15541,-1.39195 1.75013,-4.6366 2.82669,-1.21144 m -49.26529,-1.21144 0.40382,1.61525 h 0.40381 l -0.80763,-1.61525 m 28.26698,0 -1.21144,2.82669 2.01906,-2.82669 h -0.80762 m 12.38375,0.13446 0.26895,0.13491 -0.26895,-0.13491 m 5.92233,0.13491 0.13492,0.26894 -0.13492,-0.26894 m -109.1642,0.13446 1.21144,0.80764 -1.21144,-0.80764 m 2.82669,0 1.21144,2.01908 -1.21144,-2.01908 m 11.71061,0 v 0.80764 l 0.80762,-0.80764 h -0.80762 m 46.03478,0 v 1.21145 h 0.40381 l -0.40381,-1.21145 m 39.8431,0.13446 0.26893,0.13492 -0.26893,-0.13492 m -106.47239,0.26935 1.21144,1.21144 -1.21144,-1.21144 m 19.38307,0.40381 -1.21144,0.80763 v 0.40381 l 1.21144,-1.21144 m 26.65171,0 -0.80763,1.21144 0.80763,-1.21144 m 65.01402,0 -0.40381,0.80763 0.40381,-0.80763 m -111.85643,0.40381 1.61525,1.61527 -1.61525,-1.61527 m 3.23052,0 0.80761,2.42288 h 0.40383 l 0.40381,-1.61525 -1.61525,-0.80763 m 46.84239,0 v 2.01908 h -0.80761 v -2.01908 h 0.80761 m 70.26361,0 v 0.40382 l -2.82669,1.21145 v 0.40381 l 2.42289,-1.21145 v 1.61525 l -3.23052,0.80764 0.80763,-1.21144 -1.61525,0.4038 c 0.99742,-1.67784 2.50123,-2.37199 4.44194,-2.42288 m -36.4777,0.53829 0.26893,0.13491 -0.26893,-0.13491 m -74.97492,0.26934 v 0.80764 h 0.80763 l -0.80763,-0.80764 m 2.42288,0.40381 0.40383,0.80764 -0.40383,-0.80764 m 6.46104,0 -0.80764,0.40383 v 0.40381 l 0.80764,-0.80764 m 27.05552,0 -0.80763,1.61527 0.80763,-1.61527 m 3.63432,0 0.40381,1.21144 -0.40381,-1.21144 m 4.44196,0 -0.80763,0.40383 v 0.40381 l 0.80763,-0.80764 m 57.47604,0.26935 0.13492,0.26894 -0.13492,-0.26894 m -107.95278,0.13446 1.21145,1.21144 -1.21145,-1.21144 m 54.11107,0 c 9.20573,2.90705 18.08641,5.68933 27.86315,6.46102 v 0.40381 c -8.64688,0 -20.8574,-1.78122 -28.26698,-6.46102 l 0.40383,-0.40381 m 12.11441,0 v 0.80762 h 0.80762 l -0.80762,-0.80762 m 52.09199,0 -0.40383,0.40381 0.40383,-0.40381 m -127.87452,0.67316 0.13492,0.26893 -0.13492,-0.26893 m 67.70625,-0.26935 v 0.40381 l 1.61525,0.40382 v -0.40382 l -1.61525,-0.40381 m 35.53561,0 -0.40381,1.61525 h 0.40381 v -1.61525 m -94.89625,0.40381 0.80763,1.21144 -0.80763,-1.21144 m 73.62859,0.26935 0.13492,0.26893 -0.13492,-0.26893 m 8.48009,0 0.13492,0.26893 -0.13492,-0.26893 m -73.22478,0.13446 0.40383,1.61525 h 0.4038 l -0.80763,-1.61525 m 5.24959,0 -1.21144,1.61525 1.21144,-1.61525 m 54.51487,0 0.80762,0.80761 -0.80762,-0.80761 m 39.57375,0 -0.80762,1.61525 0.80762,-1.61525 m -47.24622,7.67246 c -1.31805,0.65902 -4.25942,2.58602 -5.65338,2.62478 -1.49816,0.0415 -7.30177,-5.87346 -6.66294,-7.47055 2.70232,-6.7562 10.44222,2.54605 12.31632,4.84577 m 23.01739,-7.26865 -0.40381,0.4038 0.40381,-0.4038 m -82.78184,0.4038 0.80764,1.61527 h 0.40381 l -1.21145,-1.61527 m 40.38138,0 -0.80761,1.21145 0.80761,-1.21145 m 69.99428,0.26935 0.13492,0.26894 -0.13492,-0.26894 m -107.95277,0.13446 v 0.80762 h 0.80763 l -0.80763,-0.80762 m 12.51822,0 v 0.40381 l -2.82669,1.61525 v -0.40381 l 2.82669,-1.61525 m 23.42122,0 c -3.82291,4.1508 -6.84426,9.50537 -9.2203,14.5373 -1.12461,2.38088 -1.65562,5.18819 -3.29794,7.26865 v 0.40381 l 8.48009,5.6534 c -1.39114,-5.28593 4.33171,-10.05861 4.84576,-14.94112 h -0.40381 l -3.63432,8.48009 h -0.40381 v -1.21144 h -0.40382 l -1.61525,6.0572 -5.45148,-4.03813 1.3459,-4.44196 5.8553,-11.30678 3.90368,-6.46102 m 54.91867,0 -0.4038,0.80762 0.4038,-0.80762 m -103.37634,0.40381 v 1.61525 h 0.40381 l -0.40381,-1.61525 m 9.28771,0 0.80763,2.42289 h 0.40381 l -1.21144,-2.42289 m 45.22716,1.21144 1.21144,-1.21144 -1.21144,1.21144 m 7.67246,-1.21144 1.21144,1.21144 -1.21144,-1.21144 m -43.20809,0.40381 0.40383,1.61527 h 0.40381 l -0.80764,-1.61527 m 88.16591,0.26935 0.13491,0.26894 -0.13491,-0.26894 m 1.88459,0.13446 -0.40382,0.40381 0.40382,-0.40381 m 6.9993,0.26933 0.13492,0.26895 -0.13492,-0.26895 m 3.23052,0 0.13492,0.26895 -0.13492,-0.26895 m -16.55637,0.40383 0.13492,0.26893 -0.13492,-0.26893 m -54.11106,0.40381 0.13491,0.26893 -0.13491,-0.26893 m 9.96088,-0.26935 0.40381,0.40382 -0.40381,-0.40382 m 5.6534,0 v 0.80763 h 0.80761 l -0.80761,-0.80763 m 44.28505,0.26935 -0.13492,0.26893 0.13492,-0.26893 m -99.20375,2.96116 -1.21144,-2.01907 v 2.01907 l -2.01906,-1.61525 0.40381,-0.80763 c 1.98919,-0.83752 2.67486,0.49911 2.82669,2.42288 m 97.31915,-2.82669 -0.40382,2.42288 h 0.40382 v -2.42288 m -94.49244,0.40381 0.40381,0.40381 -0.40381,-0.40381 m 40.78519,0 -0.40381,1.21144 0.40381,-1.21144 m -41.99663,0.40381 0.40381,0.40382 -0.40381,-0.40382 m 91.3964,0.26935 0.13492,0.26893 -0.13492,-0.26893 m 16.01807,-0.26935 -0.40381,1.21144 h 0.40381 v -1.21144 m -111.45262,0.40382 0.40382,0.40381 -0.40382,-0.40381 m 12.92205,0 0.80763,1.21144 -0.80763,-1.21144 m 88.43523,0 -0.40381,2.42289 h -0.40382 l 0.80763,-2.42289 m 6.59549,0.26934 0.13492,0.26895 -0.13492,-0.26895 m -54.64934,0.13446 0.80763,0.80763 -0.80763,-0.80763 m 5.6534,0 0.80763,0.80763 v -0.80763 h -0.80763 m -18.97926,0.40381 -0.40381,1.21144 0.40381,-1.21144 m 46.03478,0.13446 0.13446,0.13491 c -0.19908,0.0662 -0.44662,-0.13491 -0.13446,-0.13491 m 24.63265,0.26934 0.40381,0.40381 -0.40381,-0.40381 m 22.47911,0.26934 -0.13492,0.26895 0.13492,-0.26895 m -139.58513,0.13446 0.80763,1.61525 h 0.40381 l -1.21144,-1.61525 m 50.88055,0 -0.40381,1.21144 0.40381,-1.21144 m 16.15255,0 0.40382,0.40381 -0.40382,-0.40381 m 32.30511,2.01907 v 0.40381 l -5.24958,-1.61525 c 1.30068,-0.94614 3.93193,0.4139 5.24958,1.21144 m -89.24287,-1.21144 -0.40381,1.61525 h 0.40381 v -1.61525 m 51.28437,0 0.40381,0.40381 -0.40381,-0.40381 m -53.70725,1.21144 1.21144,-0.80763 -1.21144,0.80763 m 108.62593,-0.80763 -0.80763,2.42288 h 0.40382 l 0.40381,-2.42288 m -104.58778,0.40381 0.40381,0.40382 -0.40381,-0.40382 m 7.67246,0 0.40381,1.61526 h 0.40382 l -0.80763,-1.61526 m 25.44027,0 -0.40381,0.80763 0.40381,-0.80763 m 95.30007,0 c 0,2.45237 -0.44944,3.56609 -2.8267,4.44196 l 2.8267,-4.44196 m -140.12341,0.40382 -0.40381,0.40381 0.40381,-0.40381 m 62.99496,0 v 0.80762 h 0.80764 l -0.80764,-0.80762 m -51.68818,0.40381 0.40383,0.40381 -0.40383,-0.40381 m 37.55469,1.21144 1.21144,-1.21144 -1.21144,1.21144 m -48.45766,-0.80763 5.6534,7.67247 c -1.84422,-0.92191 -6.8927,-5.57547 -5.6534,-7.67247 m 1.21144,0 1.21144,1.21144 -1.21144,-1.21144 m 8.88392,0 -0.80764,0.40382 v 0.40381 l 0.80764,-0.80763 m 52.8996,3.63432 3.63433,-2.42288 c 0,2.18908 0.38483,3.46917 2.8267,2.82671 l -1.21144,2.01906 2.82669,-2.82669 -1.61525,0.80763 c 3.27574,-4.61035 -5.2306,-4.65478 -6.46103,-0.40383 m -12.51822,-2.82669 -0.80764,0.80764 0.80764,-0.80764 m 18.57543,2.82669 c -4.41247,-1.31198 2.49153,-4.30385 0,0 m 33.92036,-2.82669 -0.40381,0.40381 0.40381,-0.40381 m 14.13349,0 v 1.21144 h -0.40381 l 0.40381,-1.21144 m -74.30174,0.40381 -0.80763,1.61527 0.80763,-1.61527 m 60.97589,0 -0.40381,0.40383 0.40381,-0.40383 m -100.54965,0.80763 1.21144,1.61525 -1.21144,-1.61525 m 16.15255,0 0.80763,1.21145 -0.80763,-1.21145 m 27.86315,0 -0.40381,1.61525 h 0.40381 v -1.61525 m 28.67079,0 0.80763,1.21145 h -2.42288 v -0.40381 l 1.61525,-0.80764 m 29.88223,0 -0.40382,0.40381 0.40382,-0.40381 m 1.8846,0.53829 0.26894,0.13492 -0.26894,-0.13492 m 30.82432,0.67316 v 0.4038 l -4.44195,2.01908 4.44195,-2.42288 m -77.53226,0.4038 c -3.43323,3.52571 -7.27834,9.94877 -7.67247,14.94113 h 0.40382 l 5.38405,-11.3068 1.8846,-3.63433 m -19.38306,0.40383 -0.40383,1.21144 0.40383,-1.21144 m 20.19068,0 v 0.80762 l 0.80763,-0.80762 h -0.80763 m 15.74874,0 0.40382,0.80762 -0.40382,-0.80762 m -57.34156,0.40381 0.80763,1.21144 v -1.21144 h -0.80763 m 25.84408,0 -0.40381,1.21144 0.40381,-1.21144 m 37.95851,6.05721 c -0.77331,0.84356 -3.67713,3.37225 -4.84576,3.56688 -1.64192,0.27379 -8.74944,-4.63053 -8.74944,-6.39358 0,-5.65541 6.94156,-1.74366 8.74944,-0.53828 1.6415,1.09433 3.24504,2.22743 4.84576,3.36498 m -78.7437,-5.6534 1.21144,1.21144 -1.21144,-1.21144 m 70.26361,0.40382 v 0.80762 h 0.80762 l -0.80762,-0.80762 m 2.42288,0 -0.40382,0.40381 0.40382,-0.40381 m 53.30343,0.40381 -0.40382,0.40381 0.40382,-0.40381 m -70.66743,0.40381 -0.80762,2.01907 h 0.40381 l 0.40381,-2.01907 m 69.8598,0 v 0.40382 l -4.03813,0.40381 4.03813,-0.80763 m -126.79756,0.80763 3.63433,2.42288 v 0.40381 c -1.26878,-0.46721 -3.95253,-1.42667 -3.63433,-2.82669 m 3.63433,0 v 0.40381 l 1.61526,0.40382 -1.61526,-0.80763 m 16.96018,0 2.01908,3.23052 -2.01908,-3.23052 m -2.82669,0.40381 0.80763,1.21144 -0.80763,-1.21144 m 18.17162,0 v 1.21144 h 0.40381 l -0.40381,-1.21144 m 27.45935,0 -1.21144,1.61526 1.21144,-1.61526 m 4.44194,0.40382 0.80764,0.80762 -0.80764,-0.80762 m 6.46103,0 0.80762,0.80762 v -0.80762 h -0.80762 m -70.26361,1.21144 -1.21144,-0.40382 1.21144,0.40382 m 2.42289,0.13447 c 0.31214,0 0.0646,0.20111 -0.13446,0.13491 l 0.13446,-0.13491 m 48.86147,-0.13447 -0.40381,1.21145 h 0.40381 v -1.21145 m 20.99831,0 0.80764,0.80762 -0.80764,-0.80762 m -71.07123,0.40381 2.42289,1.21145 v 0.4038 l -2.82671,-1.21144 0.40382,-0.40381 m 3.23051,0 v 0.40381 l 1.61526,0.40383 v -0.40383 l -1.61526,-0.40381 m 10.49916,0 1.21144,1.21145 -1.21144,-1.21145 m 21.40214,0 -0.40382,0.80764 0.40382,-0.80764 m -35.93944,0.40381 -0.40381,0.40383 0.40381,-0.40383 m 65.82166,0 0.80763,0.80764 v -0.80764 h -0.80763 m -65.01403,0.40383 1.61526,0.80761 v 0.40383 l -2.01908,-0.80763 0.40382,-0.40381 m 29.47841,0 -0.40381,0.80761 0.40381,-0.80761 m 26.24791,0.40381 v 0.80763 l 0.80761,-0.80763 h -0.80761 m 11.57613,0.53828 0.26893,0.13492 -0.26893,-0.13492 m -64.87956,0.26935 -0.40383,0.40381 0.40383,-0.40381 m 12.92203,0 1.21144,1.21144 -1.21144,-1.21144 m 13.46033,0.26933 0.13492,0.26895 -0.13492,-0.26895 m -24.90159,0.26895 0.26895,0.13492 -0.26895,-0.13492 m 29.61288,-0.13446 -0.4038,1.21144 0.4038,-1.21144 m 14.5373,0 v 1.21144 h 0.40383 l -0.40383,-1.21144 m 20.59451,0.40381 1.21144,0.80763 -1.21144,-0.80763 m 7.26865,0.13446 c -2.17171,0.64247 -2.09862,4.47062 0.40382,3.83623 2.44024,-0.61864 2.30215,-4.63658 -0.40382,-3.83623 m -21.80595,0.26935 -0.40381,1.21144 0.40381,-1.21144 m 21.40214,0.40381 c 3.84269,0.10088 0.10088,3.8427 0,0 m -40.38138,0.40381 -0.80763,3.63432 h -0.40381 l 1.21144,-3.63432 m -13.72968,0.40382 -0.40381,0.40381 0.40381,-0.40381 m 50.07293,0.80762 1.21144,-0.80762 -1.21144,0.80762 m 15.74874,2.82671 c -2.223,-0.46804 -3.4292,-1.53006 -4.03815,-3.63433 2.15031,0.1696 3.33147,1.7158 4.03815,3.63433 m -54.51487,-3.23052 v 1.21144 h 0.40381 l -0.40381,-1.21144 m 49.6691,0 v 0.40381 l -1.61526,1.21144 1.21144,-0.40381 -2.82669,1.61525 3.23051,-2.82669 m 4.03814,0 2.42288,4.44196 h -0.40381 l -2.01907,-4.44196 m -69.45598,0.40381 -0.40383,0.40382 0.40383,-0.40382 m 6.46101,0 v 0.40382 l 4.84577,2.82669 -4.84577,-3.23051 m 23.55568,0.26935 0.13492,0.26893 -0.13492,-0.26893 m 5.92273,-0.26935 v 0.80763 l 0.80763,-0.80763 h -0.80763 m -39.57375,1.21144 -0.40382,0.40382 0.40382,-0.40382 m 8.07627,0 v 0.40382 l 6.86484,2.8267 c -1.54942,-2.46529 -4.16009,-3.08797 -6.86484,-3.23052 m 58.95683,0 -0.40381,0.80763 0.40381,-0.80763 m 5.24957,0 0.40383,0.40382 -0.40383,-0.40382 m -71.07123,0.40382 10.49915,3.63433 v 0.40381 l -10.90297,-3.63433 0.40382,-0.40381 m 9.28771,0 -0.40381,0.40381 0.40381,-0.40381 m 28.26698,0 0.40381,0.40381 -0.40381,-0.40381 m 15.74874,0.80762 c -2.66114,2.8893 -6.05035,7.43866 -6.86484,11.3068 h 0.40381 l 1.21144,-0.80763 c 0.29035,-1.22518 1.22396,-5.56415 2.82671,-4.44196 l 0.80762,-1.61525 -1.21144,0.80763 1.61526,-2.82671 0.80762,0.80764 0.80763,-1.61525 -1.21144,0.80761 0.80763,-2.42288 m -22.07529,0.67316 0.13491,0.26895 -0.13491,-0.26895 m 22.88291,-0.26933 v 0.80761 l 0.80763,-0.80761 h -0.80763 m 14.94112,0 1.21144,0.80761 v -0.40381 l -1.21144,-0.4038 m -32.57446,1.07696 0.13492,0.26894 -0.13492,-0.26894 m 23.69055,-0.26935 -0.40381,0.80764 h 0.80763 l -0.40382,-0.80764 m 11.44126,0.67316 0.13492,0.26895 -0.13492,-0.26895 m -9.826,0.13446 -0.40382,0.40381 0.40382,-0.40381 m -26.2479,0.80763 v 0.80762 l 0.80763,-0.80762 h -0.80763 m -6.46102,0.40381 -0.80763,4.44196 h 0.40381 l 0.40382,-4.44196 m 1.21144,0 -0.40382,0.80764 h 0.80763 l -0.40381,-0.80764 m 27.45934,0.80764 -0.40381,1.21144 0.40381,-1.21144 m -28.13249,1.88459 0.13491,0.26894 -0.13491,-0.26894 m 4.84576,0 0.13492,0.26894 -0.13492,-0.26894 m -13.46033,0.9421 c 0.82297,2.2448 8.09324,5.95464 10.49916,6.46101 v -0.40381 l -10.49916,-6.0572 m 34.728,0 -0.40383,0.80763 h 0.80763 l -0.4038,-0.80763 m -26.11343,0.67315 0.13491,0.26894 -0.13491,-0.26894 m 3.90365,0.53829 v 1.21144 h 0.40383 l -0.40383,-1.21144 m 14.5373,1.21144 -0.40381,0.40381 0.40381,-0.40381 m -24.63264,0.40381 4.03814,2.42288 v -0.40381 l -4.03814,-2.01907 m 29.88223,0.40382 v 0.80762 l 0.80762,-0.80762 h -0.80762 m -23.42121,0.80762 1.21144,0.80763 -1.21144,-0.80763 m 2.01907,0.80763 1.21144,0.80764 v -0.40383 l -1.21144,-0.40381 m 14.5373,1.21144 -0.40381,1.21145 0.40381,-1.21145 m 5.78786,0.26935 0.13492,0.26894 -0.13492,-0.26894 m -19.11372,1.74973 -0.4038,0.40381 0.4038,-0.40381 m 2.8267,0.40381 v 0.40381 l -0.40381,0.80763 h -0.40381 l -0.40382,-0.80763 1.21144,-0.40381 m 0.80763,0.40381 -0.40381,0.40382 0.40381,-0.40382 m 13.72967,0 -0.40381,1.21144 0.40381,-1.21144 m -13.32586,1.34591 c 0.31216,0 0.0646,0.2011 -0.13446,0.13492 l 0.13446,-0.13492 m 47.24622,-0.13446 c -1.23002,2.22542 -2.72897,3.50753 -5.24958,4.03815 v -0.40382 l 5.24958,-3.63433 m -46.03478,0.53829 c 0.31216,0 0.0646,0.20111 -0.13446,0.13492 l 0.13446,-0.13492 m 2.01907,0 c 0.31215,0 0.0646,0.20111 -0.13446,0.13492 l 0.13446,-0.13492 m 1.21145,0.26935 -0.40381,0.40381 0.40381,-0.40381 m -1.61525,0.40381 18.97924,5.65339 v 0.40381 l -19.38307,-5.65338 0.40383,-0.40382 m 2.42288,0 7.67246,2.42288 v 0.40382 l -8.07629,-2.42288 0.40383,-0.40382 m 36.74705,1.61526 c -1.2595,2.00412 -3.48249,2.21654 -5.65339,2.75926 -5.97362,1.49371 -11.79136,0.53908 -17.7678,0.0675 v -0.40381 c 8.66826,0 15.14988,0.84195 23.42119,-2.42288 m -28.26696,1.21144 2.01906,0.40381 v 0.40381 l -2.42288,-0.40381 0.40382,-0.40381 m 4.03813,0.80762 -0.40381,0.40382 0.40381,-0.40382 m 9.69154,2.01907 v 0.40381 h -4.84577 l 4.84577,-0.40381 m 0.80763,0.13447 0.13446,0.13491 c -0.19908,0.0662 -0.44662,-0.13491 -0.13446,-0.13491 m 3.63432,-0.13447 v 0.40381 h -1.21144 z"
       id="path239" /></g></svg>
